<svg width="600" height="600" viewBox="0 0 936 748" fill="none" xmlns="http://www.w3.org/2000/svg">
<g clip-path="url(#clip0_4_30582)">
<path opacity="0.1" d="M67.6916 300.165C87.3885 348.593 62.257 404.377 32.7211 446.425C22.8159 460.5 11.9278 475.233 10.5384 492.95C8.8844 514.555 22.3244 534.422 38.2785 547.406C67.3608 571.07 107.095 578.385 141.706 566.45C171.62 556.162 196.771 532.838 226.94 523.434C277.43 507.703 330.906 533.785 374.109 566.265C404.684 589.249 437.434 617.193 474.295 612.285C500.248 608.828 522.27 589.003 537.204 565.648C544.415 554.331 550.691 541.748 561.201 534.134C567.449 529.607 574.783 527.21 582.127 525.502C649.138 509.915 720.241 547.962 786.364 528.393C831.022 515.173 866.635 476.745 888.771 432.515C910.906 388.285 921.246 338.325 929.857 288.827C935.972 253.651 941.047 215.697 927.021 183.33C912.144 149.09 877.713 128.338 843.111 124.459C808.509 120.58 773.794 131.332 741.914 146.497C702.076 165.459 663.031 192.003 619.545 192.095C589.934 192.157 561.702 179.749 533.385 170.356C485.958 154.584 436.81 146.744 387.729 139.511C340.764 132.587 293.346 126.136 246.098 130.252C212.668 133.143 183.151 147.053 150.713 153.483C129.57 157.681 108.324 154.512 87.5775 161.621C62.0585 170.315 35.7455 190.49 34.3373 222.23C33.0046 252.406 57.2382 274.454 67.6916 300.165Z" fill="#6C63FF"/>
<g opacity="0.5">
<path opacity="0.5" d="M659.61 188.443C654.884 189.924 649.015 193.752 646.142 204.256C640.471 224.833 653.589 238.908 649.289 260.277C648.114 265.958 645.86 271.31 642.673 275.987C637.408 283.755 631.681 287.438 626.142 292.881C619.102 299.832 614.058 308.85 611.615 318.849C608.939 329.885 608.715 341.456 610.963 352.605C612.939 361.926 616.303 368.707 619.233 376.269C622.881 385.918 625.728 395.903 627.74 406.105C628.857 411.063 629.491 416.136 629.63 421.239C629.724 427.649 628.808 434.614 627.91 441.487L619.904 502.302C618.836 510.399 617.759 518.63 617.721 526.336C617.664 535.235 618.978 542.879 620.282 550.339C623.118 566.43 626.114 583.128 632.569 591.616C639.025 600.104 649.969 597.161 656.708 579.835C663.116 563.374 663.249 541.357 668.901 523.743C677.804 495.964 695.516 492.26 705.336 465.788C714.788 440.396 711.877 409.202 716.678 380.271C720.1 359.519 727.387 340.588 731.706 320.083C737.916 290.545 737.301 259.886 732.339 237.189C727.377 214.493 718.474 198.906 708.644 187.085C704.476 182.074 700.025 177.619 694.788 177.177C689.222 176.714 684.392 184.379 678.863 186.632C672.455 189.235 666.065 186.447 659.61 188.443Z" fill="#6C63FF"/>
<path opacity="0.5" d="M689.751 178.617C689.751 178.617 680.299 441.261 640.669 596.143" stroke="#535461" stroke-width="2" stroke-miterlimit="10"/>
<path opacity="0.5" d="M645.896 205.542C645.896 205.542 688.22 247.529 680.233 327.532" stroke="#535461" stroke-width="2" stroke-miterlimit="10"/>
<path opacity="0.5" d="M610.339 325.011C610.339 325.011 679.902 340.238 674.742 385.528" stroke="#535461" stroke-width="2" stroke-miterlimit="10"/>
<path opacity="0.5" d="M732.424 236.562C732.424 236.562 704.287 263.384 679.203 339.354" stroke="#535461" stroke-width="2" stroke-miterlimit="10"/>
<path opacity="0.5" d="M704.911 466.169C704.911 466.169 685.706 482.63 670.29 425.211" stroke="#535461" stroke-width="2" stroke-miterlimit="10"/>
<path opacity="0.5" d="M622.059 499.658C622.059 499.658 661.226 494.092 664.837 467.383" stroke="#535461" stroke-width="2" stroke-miterlimit="10"/>
</g>
<path d="M754.286 12.2843C744.588 13.8482 732.925 18.7352 728.133 33.8283C718.729 63.4179 747.329 85.8158 740.742 116.733C738.766 125.992 733.899 133.523 728.767 139.017C718.71 149.779 707.264 154.45 696.395 161.755C685.526 169.059 674.241 180.521 669.147 198.124C664.241 215.059 666.368 233.774 671.462 247.756C676.557 261.738 684.269 272.16 691.159 283.662C699.549 297.823 706.566 312.894 712.094 328.633C714.561 335.557 716.82 342.862 717.623 351.154C718.512 360.609 717.387 370.785 716.272 380.744L706.329 469.224C705.006 481.005 703.673 492.991 704.438 504.339C705.299 517.436 708.852 528.856 712.359 540.009C719.92 564.063 728.01 589.054 742.254 602.377C756.497 615.701 778.878 612.789 790.92 588.138C802.384 564.67 800.277 532.313 810.049 507.106C825.455 467.383 861.702 464.173 879.14 426.466C895.878 390.292 886.512 344.014 893.232 301.976C898.052 271.851 911.086 244.926 917.806 215.285C927.446 172.578 922.843 127.36 910.084 93.2955C897.324 59.2305 877.212 35.1247 855.587 16.4512C846.419 8.53936 836.684 1.38891 825.833 0.0719863C814.265 -1.32724 805.04 9.26984 793.897 11.9345C780.948 15.0931 767.433 10.1649 754.286 12.2843Z" fill="#6C63FF"/>
<path d="M815.588 1.68726C815.588 1.68726 824.709 387.257 759.484 610.217" stroke="#535461" stroke-width="2" stroke-miterlimit="10"/>
<path d="M727.755 35.6803C727.755 35.6803 820.021 102.987 812.119 219.761" stroke="#535461" stroke-width="2" stroke-miterlimit="10"/>
<path d="M667.19 207.034C667.19 207.034 812.819 238.434 807.072 304.455" stroke="#535461" stroke-width="2" stroke-miterlimit="10"/>
<path d="M910.216 92.5342C910.216 92.5342 854.868 128.4 811.269 237.035" stroke="#535461" stroke-width="2" stroke-miterlimit="10"/>
<path d="M878.289 427.104C878.289 427.104 840.332 448.853 802.176 362.287" stroke="#535461" stroke-width="2" stroke-miterlimit="10"/>
<path d="M710.402 465.737C710.402 465.737 790.863 462.588 795.466 423.739" stroke="#535461" stroke-width="2" stroke-miterlimit="10"/>
<path opacity="0.1" d="M461.431 643.84C684.671 643.84 865.643 624.917 865.643 601.575C865.643 578.233 684.671 559.31 461.431 559.31C238.191 559.31 57.2193 578.233 57.2193 601.575C57.2193 624.917 238.191 643.84 461.431 643.84Z" fill="#6C63FF"/>
<path d="M63.5613 551.265C63.5613 551.265 71.4816 562.582 59.9035 579.558C48.3255 596.534 38.7795 610.958 42.6829 621.566C42.6829 621.566 60.1493 589.949 74.3643 589.507C88.5794 589.064 79.2035 570.278 63.5613 551.265Z" fill="#6C63FF"/>
<path opacity="0.1" d="M63.5613 551.265C64.2515 552.355 64.7957 553.547 65.1775 554.804C79.0523 572.541 86.4339 589.095 73.1073 589.517C60.688 589.908 45.7925 614.076 42.2198 620.187C42.3377 620.658 42.4797 621.122 42.6451 621.576C42.6451 621.576 60.1115 589.959 74.3265 589.517C88.5416 589.075 79.2035 570.278 63.5613 551.265Z" fill="black"/>
<path d="M78.2867 565.638C78.2867 569.609 77.8803 572.84 77.3415 572.84C76.8028 572.84 76.3964 569.619 76.3964 565.638C76.3964 561.656 76.9068 563.58 77.4077 563.58C77.9086 563.58 78.2867 561.666 78.2867 565.638Z" fill="#FFD037"/>
<path d="M83.3243 570.37C80.1203 572.273 77.3321 573.457 77.0958 572.932C76.8595 572.407 79.2507 570.514 82.4548 568.621C85.6589 566.728 84.3924 568.107 84.6381 568.621C84.8838 569.135 86.5378 568.456 83.3243 570.37Z" fill="#FFD037"/>
<path d="M21.7195 551.265C21.7195 551.265 13.7992 562.582 25.3773 579.558C36.9553 596.534 46.4635 610.958 42.6829 621.566C42.6829 621.566 25.2166 589.949 11.0015 589.507C-3.2135 589.064 6.08676 570.278 21.7195 551.265Z" fill="#6C63FF"/>
<path opacity="0.1" d="M21.7195 551.265C21.0293 552.355 20.4851 553.547 20.1033 554.804C6.22853 572.541 -1.15308 589.095 12.1735 589.517C24.5928 589.908 39.4883 614.076 43.061 620.187C42.9431 620.658 42.8011 621.122 42.6357 621.576C42.6357 621.576 25.1693 589.959 10.9543 589.517C-3.26077 589.075 6.08676 570.278 21.7195 551.265Z" fill="black"/>
<path d="M7.00356 565.638C7.00356 569.609 7.40997 572.84 7.9487 572.84C8.48744 572.84 8.89385 569.619 8.89385 565.638C8.89385 561.656 8.38347 563.58 7.88254 563.58C7.38162 563.58 7.00356 561.666 7.00356 565.638Z" fill="#FFD037"/>
<path d="M1.94704 570.37C5.15109 572.273 7.93928 573.457 8.17556 572.932C8.41185 572.407 6.02063 570.514 2.81657 568.621C-0.387485 566.728 0.879017 568.107 0.633279 568.621C0.38754 569.135 -1.25702 568.456 1.94704 570.37Z" fill="#FFD037"/>
<path d="M9.51765 620.094C9.51765 620.094 31.6625 619.353 38.3352 614.178C45.008 609.003 72.3606 602.861 74.0524 611.092C75.7442 619.323 107.331 652.359 82.3319 652.575C57.3327 652.791 24.2431 648.336 17.5798 643.922C10.9165 639.509 9.51765 620.094 9.51765 620.094Z" fill="#A8A8A8"/>
<path opacity="0.2" d="M82.7856 649.735C57.7864 649.951 24.6967 645.496 18.0334 641.083C12.958 637.718 10.9354 625.65 10.2643 620.084H9.5271C9.5271 620.084 10.9259 639.529 17.5892 643.943C24.2525 648.357 57.3422 652.822 82.3792 652.606C89.6001 652.544 92.0859 649.746 91.9535 645.61C90.8855 648.11 88.154 649.674 82.7856 649.735Z" fill="black"/>
<path d="M297.75 463.957C297.75 463.957 408.569 386.886 485.183 386.886C485.183 386.886 577.42 371.248 677.747 397.679C778.075 424.11 815.134 458.381 842.95 448.318L726.092 452.043L297.75 463.957Z" fill="#8CD0F3"/>
<path opacity="0.1" d="M297.75 463.957C297.75 463.957 408.569 386.886 485.183 386.886C485.183 386.886 577.42 371.248 677.747 397.679C778.075 424.11 815.134 458.381 842.95 448.318L726.092 452.043L297.75 463.957Z" fill="#8CD0F3"/>
<path d="M820.087 581.914H144.23L162.811 500.872L277.742 467.609L820.087 483.124V581.914Z" fill="#121C3F"/>
<path d="M855.662 531.274V557.139C855.662 557.139 835.597 572.983 833.773 585.391C833.773 585.391 805.04 593.334 796.836 593.334C796.09 593.334 795.277 593.334 794.426 593.426C795.708 589.683 796.71 585.833 797.422 581.914C799.435 570.916 799.181 559.57 796.68 548.691C794.179 537.813 789.493 527.674 782.959 519.005C776.425 510.336 768.206 503.352 758.893 498.557C749.581 493.762 739.408 491.275 729.107 491.275C718.805 491.275 708.632 493.762 699.32 498.557C690.008 503.352 681.789 510.336 675.255 519.005C668.721 527.674 664.035 537.813 661.534 548.691C659.032 559.57 658.779 570.916 660.791 581.914C661.759 587.215 663.245 592.389 665.224 597.346H626.265C626.265 597.346 625.906 597.48 625.32 597.758C623.231 598.787 618.307 601.503 617.598 605.773H294.726L288.11 605.711C289.516 603.142 290.778 600.482 291.89 597.748C293.965 592.682 295.506 587.377 296.484 581.934C298.406 571.54 298.305 560.823 296.189 550.474C294.073 540.125 289.988 530.373 284.198 521.847C278.408 513.322 271.04 506.212 262.571 500.975C254.102 495.739 244.719 492.492 235.027 491.445C225.334 490.398 215.548 491.573 206.298 494.894C197.049 498.216 188.541 503.611 181.324 510.731C174.107 517.851 168.341 526.538 164.397 536.233C160.453 545.927 158.419 556.414 158.426 567.016C158.426 572.014 158.875 577.001 159.768 581.903C161.291 590.205 164.083 598.169 168.029 605.464C163.416 604.24 153.35 600.762 153.35 600.762C153.35 600.762 110.488 595.803 99.5431 585.329L101.197 584.085L108.21 578.868L105.016 565.493C104.63 564.929 104.312 564.314 104.07 563.662C103.22 561.429 102.473 557.283 105.479 552.077C110.034 544.135 107.756 515.841 107.756 515.841C107.756 515.841 169.777 469.183 291.994 458.751C291.994 458.751 294.915 461.22 300.945 461.734C305.028 462.095 310.538 461.549 317.542 458.751C317.542 458.751 327.57 463.71 370.47 436.909C370.47 436.909 443.445 382.297 539.217 387.277C539.217 387.277 637.72 380.816 721.631 416.085C757.792 431.27 785.305 439.367 804.917 443.647C823.026 447.608 834.396 448.339 839.604 448.401H839.718C841.419 448.401 842.43 448.401 842.789 448.401H842.941C842.941 448.401 842.941 460.222 843.517 474.183V474.256C843.725 479.112 844.009 484.225 844.406 489.194V489.503C845.502 503.341 847.392 515.913 850.672 518.403L855.662 531.274Z" fill="#2856B8"/>
<path d="M117.614 514.71C117.614 514.71 145.09 491.375 179.295 496.345C179.295 496.345 148.171 523.156 134.145 521.418L131.754 519.185L117.577 520.049C117.577 520.049 115.459 516.448 117.614 514.71Z" fill="#8CD0F3"/>
<path opacity="0.2" d="M144.286 555.082V568.858C144.286 568.858 143.341 582.017 132.425 582.511L101.235 584.188L108.238 578.971L105.044 565.596C104.657 565.037 104.339 564.425 104.099 563.775C106.934 560.936 113.616 556.141 127.208 555.112L144.286 555.082Z" fill="white"/>
<path opacity="0.2" d="M289.424 497.343L313.364 496.314C313.364 496.314 303.676 504.627 296.834 505.378C289.991 506.129 289.424 497.343 289.424 497.343Z" fill="white"/>
<path opacity="0.2" d="M339.819 576.399C339.819 576.399 556.324 543.631 608.657 554.053C608.657 554.053 624.044 555.174 629.866 561.872C635.688 568.57 629.866 564.228 629.866 564.228L339.819 576.399Z" fill="white"/>
<path opacity="0.5" d="M461.015 484.431C461.015 484.431 463.756 478.844 468.199 478.721L497.044 477.105C497.044 477.105 496.591 481.447 491.459 483.062L461.015 484.431Z" fill="#18218A"/>
<path opacity="0.5" d="M627.929 474.996C627.929 474.996 630.67 469.41 635.112 469.286L663.958 467.63C663.958 467.63 663.504 471.972 658.372 473.587L627.929 474.996Z" fill="#18218A"/>
<path d="M529.435 398.45L507.299 461.642L427.491 461.735H406.943H389.071H373.617H356.113C356.113 461.735 366.775 453.216 383.948 442.362C389.619 438.761 396.055 434.913 403.04 431.044C409.467 427.464 416.385 423.842 423.654 420.406C429.325 417.69 435.298 415.077 441.404 412.638C469.087 401.619 500.201 394.222 529.435 398.45Z" fill="#8CD0F3"/>
<path d="M654.837 444.594C654.837 444.594 621.492 449.975 589.669 453.956C577.505 455.479 565.568 456.796 555.795 457.527L554.434 457.629C550.653 457.897 547.147 458.072 544.17 458.134C539.444 458.226 535.909 458 534.141 457.382L543.338 396.938C543.338 396.938 554.68 397.072 571.456 397.967L575.123 398.183C578.611 398.399 582.287 398.646 586.125 398.934C591.607 399.345 597.381 399.839 603.336 400.436C632.087 403.307 664.657 408.461 685.28 417.741C729.164 437.516 654.837 444.594 654.837 444.594Z" fill="#8CD0F3"/>
<path d="M808.518 474.996V491.129C808.518 491.129 784.578 491.499 789.71 486.293C793.031 482.836 796.047 479.047 798.717 474.976L808.518 474.996Z" fill="#8CD0F3"/>
<path d="M844.387 489.483L824.945 491.139V471.745C824.945 471.745 833.952 457.969 842.96 473.237L843.479 474.132L844.387 489.483Z" fill="#8CD0F3"/>
<path d="M228.15 627.584C258.879 627.584 283.79 600.467 283.79 567.016C283.79 533.565 258.879 506.448 228.15 506.448C197.42 506.448 172.509 533.565 172.509 567.016C172.509 600.467 197.42 627.584 228.15 627.584Z" fill="#182A7C"/>
<path d="M272.779 566.965C272.8 579.463 268.409 591.492 260.515 600.567C252.621 609.642 241.826 615.07 230.361 615.729C218.895 616.389 207.635 612.229 198.907 604.11C190.178 595.99 184.648 584.532 183.458 572.101C182.269 559.67 185.511 547.217 192.515 537.314C199.519 527.41 209.749 520.814 221.093 518.887C232.438 516.96 244.028 519.849 253.471 526.959C262.914 534.068 269.488 544.854 271.834 557.088C272.457 560.337 272.773 563.646 272.779 566.965Z" fill="#3F8FFE"/>
<path opacity="0.5" d="M228.083 608.818C249.271 608.818 266.447 590.075 266.447 566.954C266.447 543.834 249.271 525.091 228.083 525.091C206.896 525.091 189.72 543.834 189.72 566.954C189.72 590.075 206.896 608.818 228.083 608.818Z" fill="#18218A"/>
<path d="M240.918 520.224V521.994L228.15 568.014L217.904 519.463C225.506 517.534 233.438 517.797 240.918 520.224Z" fill="#3F8FFE"/>
<path d="M240.824 613.726C233.51 616.083 225.765 616.374 218.32 614.569L228.14 568.014L240.824 613.726Z" fill="#3F8FFE"/>
<path d="M272.779 566.965C272.786 572.042 272.065 577.089 270.643 581.924H270.464L228.187 568.024L271.91 557.098C272.505 560.347 272.796 563.652 272.779 566.965Z" fill="#3F8FFE"/>
<path d="M228.15 568.014L185.873 581.914H185.542C183.188 573.878 182.768 565.319 184.323 557.057L228.15 568.014Z" fill="#3F8FFE"/>
<path d="M228.083 572.294C230.793 572.294 232.989 569.903 232.989 566.954C232.989 564.005 230.793 561.615 228.083 561.615C225.374 561.615 223.178 564.005 223.178 566.954C223.178 569.903 225.374 572.294 228.083 572.294Z" fill="#182A7C"/>
<path d="M728.767 627.584C759.496 627.584 784.407 600.467 784.407 567.016C784.407 533.565 759.496 506.448 728.767 506.448C698.037 506.448 673.126 533.565 673.126 567.016C673.126 600.467 698.037 627.584 728.767 627.584Z" fill="#182A7C"/>
<path d="M773.406 566.965C773.426 579.463 769.036 591.492 761.142 600.567C753.247 609.642 742.453 615.07 730.987 615.729C719.522 616.389 708.262 612.229 699.533 604.11C690.805 595.99 685.274 584.532 684.085 572.101C682.895 559.67 686.137 547.217 693.141 537.314C700.145 527.41 710.376 520.814 721.72 518.887C733.064 516.96 744.655 519.849 754.098 526.959C763.541 534.068 770.114 544.854 772.461 557.088C773.083 560.337 773.4 563.646 773.406 566.965Z" fill="#3F8FFE"/>
<path opacity="0.5" d="M728.71 608.818C749.897 608.818 767.073 590.075 767.073 566.954C767.073 543.834 749.897 525.091 728.71 525.091C707.522 525.091 690.346 543.834 690.346 566.954C690.346 590.075 707.522 608.818 728.71 608.818Z" fill="#18218A"/>
<path d="M741.536 520.224V521.994L728.767 568.014L718.521 519.463C726.123 517.534 734.055 517.797 741.536 520.224Z" fill="#3F8FFE"/>
<path d="M741.45 613.726C734.137 616.083 726.392 616.374 718.947 614.569L728.767 568.014L741.45 613.726Z" fill="#3F8FFE"/>
<path d="M773.406 566.965C773.412 572.042 772.692 577.089 771.27 581.924H771.053L728.767 568.014L772.489 557.088C773.1 560.338 773.408 563.647 773.406 566.965Z" fill="#3F8FFE"/>
<path d="M728.767 568.014L686.49 581.914H686.159C683.805 573.878 683.385 565.319 684.94 557.057L728.767 568.014Z" fill="#3F8FFE"/>
<path d="M728.71 572.294C731.419 572.294 733.615 569.903 733.615 566.954C733.615 564.005 731.419 561.615 728.71 561.615C726.001 561.615 723.805 564.005 723.805 566.954C723.805 569.903 726.001 572.294 728.71 572.294Z" fill="#182A7C"/>
<path opacity="0.2" d="M403.049 431.106L389.071 461.776H373.617L383.948 442.423C389.647 438.822 396.065 434.985 403.049 431.106Z" fill="white"/>
<path opacity="0.2" d="M441.403 412.7L427.481 461.745H406.934L423.663 420.447C429.372 417.752 435.307 415.159 441.403 412.7Z" fill="white"/>
<path opacity="0.2" d="M586.144 398.985L555.814 457.537L554.453 457.64C550.672 457.907 547.166 458.082 544.188 458.144L571.475 398.029L575.142 398.245C578.582 398.45 582.287 398.697 586.144 398.985Z" fill="white"/>
<path opacity="0.2" d="M356.643 461.57L339.327 591.4L483.945 587.953L507.687 462.136L356.643 461.57Z" stroke="white" stroke-miterlimit="10"/>
<path opacity="0.5" d="M625.329 597.717C623.241 598.746 618.316 601.462 617.608 605.732H294.726L288.11 605.67C289.516 603.101 290.778 600.441 291.89 597.707L625.329 597.717Z" fill="#18218A"/>
<path d="M346.18 691.537C348.382 689.305 350.452 686.671 351.094 683.471C351.737 680.271 350.48 676.423 347.664 675.24C344.516 673.923 341.142 676.269 338.59 678.707C336.038 681.146 333.108 683.852 329.772 683.337C331.49 681.641 332.776 679.489 333.503 677.091C334.23 674.693 334.374 672.13 333.921 669.654C333.775 668.631 333.376 667.671 332.768 666.876C331.02 664.818 327.844 665.713 325.755 667.318C319.139 672.462 317.249 682.267 317.201 691.136C316.53 687.936 317.098 684.603 317.079 681.321C317.06 678.039 316.237 674.407 313.695 672.637C312.111 671.711 310.331 671.257 308.534 671.32C305.538 671.197 302.202 671.526 300.16 673.913C297.618 676.876 298.27 681.845 300.491 685.107C302.712 688.368 306.068 690.416 309.158 692.669C311.639 694.279 313.755 696.477 315.349 699.099C315.538 699.466 315.693 699.852 315.812 700.252H334.583C338.792 697.929 342.693 694.998 346.18 691.537Z" fill="#6C63FF"/>
<path d="M738.502 708.842C740.234 707.305 741.496 705.231 742.122 702.896C742.594 700.529 741.668 697.7 739.589 696.836C737.263 695.869 734.778 697.618 732.897 699.398C731.016 701.177 728.852 703.194 726.385 702.813C727.653 701.562 728.601 699.975 729.138 698.206C729.675 696.437 729.781 694.547 729.447 692.72C729.341 691.963 729.046 691.252 728.596 690.663C727.302 689.161 724.967 689.809 723.417 690.992C718.502 694.757 717.132 702.021 717.103 708.565C716.612 706.208 717.028 703.75 717.009 701.363C716.99 698.976 716.385 696.218 714.514 694.963C713.353 694.285 712.05 693.948 710.733 693.986C708.522 693.893 706.064 694.14 704.552 695.899C702.662 698.081 703.163 701.754 704.798 704.13C706.433 706.507 708.909 708.04 711.196 709.707C713.029 710.893 714.593 712.514 715.771 714.45C715.909 714.718 716.023 715 716.111 715.293H729.957C733.06 713.572 735.934 711.402 738.502 708.842Z" fill="#6C63FF"/>
<path d="M799.936 741.57C801.669 740.033 802.931 737.959 803.556 735.623C804.029 733.257 803.103 730.428 801.023 729.563C798.698 728.596 796.212 730.345 794.332 732.125C792.451 733.905 790.286 735.922 787.82 735.541C789.087 734.29 790.036 732.702 790.573 730.934C791.109 729.165 791.216 727.275 790.882 725.448C790.775 724.691 790.481 723.979 790.031 723.39C788.736 721.888 786.402 722.536 784.852 723.719C779.937 727.485 778.566 734.749 778.538 741.292C778.047 738.936 778.463 736.477 778.444 734.09C778.425 731.703 777.82 728.946 775.948 727.691C774.788 727.012 773.485 726.675 772.168 726.713C769.956 726.621 767.499 726.868 765.987 728.627C764.096 730.808 764.597 734.481 766.232 736.858C767.867 739.234 770.344 740.767 772.631 742.434C774.464 743.62 776.028 745.242 777.205 747.177C777.344 747.445 777.458 747.728 777.546 748.021H791.392C794.495 746.3 797.369 744.13 799.936 741.57Z" fill="#6C63FF"/>
<path d="M622.314 672.792C622.314 672.792 619.016 674.746 617.513 663.676C616.568 656.474 613.818 641.628 612.012 631.988L611.786 630.763C612.302 630.587 612.81 630.381 613.307 630.146C613.307 630.146 602.797 585.906 605.198 576.111C607.598 566.317 605.198 548.765 605.198 548.765L598.894 525.657C598.894 525.657 583.28 519.792 577.278 518.167C571.276 516.541 554.462 505.142 554.462 505.142C554.751 505.507 555.022 505.888 555.275 506.284L554.604 505.841C553.377 504.594 552.269 503.215 551.296 501.726C554.65 497.842 556.822 492.927 557.515 487.651C559.758 483.02 560.817 477.818 560.581 472.59C560.345 467.361 558.822 462.297 556.173 457.928C557.194 456.537 557.973 454.954 558.47 453.257C558.67 452.481 558.756 451.675 558.725 450.87C558.834 449.579 558.577 448.283 557.989 447.155C557.401 446.028 556.51 445.123 555.436 444.563C554.719 444.239 553.949 444.076 553.172 444.084C552.395 444.093 551.629 444.274 550.918 444.615C549.585 445.273 548.536 446.508 547.081 446.837C544.652 447.382 542.572 445.263 540.663 443.689C537.696 441.282 534.156 439.853 530.465 439.573C528.862 439.378 527.24 439.611 525.739 440.252C524.314 441.131 522.998 442.206 521.826 443.452C517.497 447.249 511.43 448.308 505.995 450.376C504.955 450.767 503.802 451.405 503.613 452.434C503.574 452.637 503.574 452.848 503.613 453.051C503.569 453.313 503.589 453.582 503.67 453.833C493.538 455.685 483.623 464.06 483.623 464.06L481.96 465.737C481.416 465.417 480.798 465.276 480.182 465.333C479.566 465.39 478.978 465.641 478.491 466.056L475.145 468.916C474.54 469.432 474.129 470.17 473.99 470.993C473.851 471.815 473.993 472.665 474.389 473.381L449.919 498.073L449.39 498.608V498.516C449.39 498.516 430.487 514.144 430.487 525.204C430.487 533.198 436.158 538.126 439.249 540.256C436.476 543.095 434.381 546.626 433.143 550.544V550.647V550.791V550.905V551.028V551.131V551.244V551.347V551.45V551.542V551.635V551.717V551.81V551.882V551.995V552.098V552.16V552.221V552.674V552.798V553.045V553.219V553.394L433.067 553.847V554.032L433.02 554.341V554.464V554.763V554.979L432.954 555.39L432.869 555.905V556.008L432.803 556.44V556.646L432.727 557.119V557.242L432.642 557.777V558.014L432.425 559.362L432.311 560.092V560.216L432.188 560.967V561.07L432.065 561.831V561.893L431.933 562.695V562.87L431.801 563.662V563.837L431.678 564.619V564.712L431.536 565.596V565.761L431.215 567.736L431.054 568.765V568.92L430.893 569.948V570.02L430.544 572.078V572.253L430.374 573.282V573.426L430.005 575.597V575.689L429.816 576.79V576.883L429.438 579.126V579.27L429.249 580.381V580.463L428.852 582.758V582.881L428.653 584.013V584.095L428.247 586.42V586.513L428.049 587.645V587.737L426.319 590.062V590.165L426.111 591.287V591.348L425.686 593.632V593.694L425.478 594.805V594.867L425.062 597.048V597.141L424.863 598.17V598.262L424.457 600.32V600.392L424.259 601.421V601.524L423.862 603.468V603.52L423.673 604.435V604.528C423.54 605.145 423.411 605.742 423.285 606.318L423.096 607.162V607.234C422.97 607.796 422.847 608.335 422.727 608.849L422.548 609.59V609.672L422.378 610.382C421.622 613.469 420.96 615.526 420.487 616.01C420.009 616.556 419.633 617.199 419.382 617.903L419.306 618.109L419.23 618.335L419.164 618.561L418.852 618.87L418.786 619.107L418.729 619.323L418.673 619.57V619.796L418.625 620.043V620.269C418.625 620.434 418.6 620.598 418.55 620.763V620.969V621.247V621.463V621.74V621.956V622.234V622.45V622.728V622.934C418.55 623.273 418.55 623.603 418.55 623.963C418.55 624.024 418.55 624.086 418.55 624.158C418.55 624.23 418.55 624.333 418.55 624.426C418.55 624.518 418.55 624.559 418.55 624.621C418.55 624.683 418.55 624.796 418.55 624.878C418.55 624.961 418.55 625.002 418.55 625.074C418.55 625.146 418.55 625.238 418.55 625.321V625.506C418.55 625.588 418.55 625.671 418.55 625.753V625.917C418.55 626.068 418.55 626.216 418.55 626.36V627.985V628.212V628.86L421.385 629.796C421.385 629.796 422.812 630.65 425.015 631.761C424.703 642.142 423.824 656.196 421.433 664.798C416.102 665.096 402.936 665.703 400.554 664.664C397.549 663.357 378.334 660.106 384.345 675.076C386.859 681.352 392.331 686.084 397.832 689.479C397.151 689.723 396.457 689.919 395.753 690.066C390.857 691.095 389.496 692.875 389.685 694.706C389.335 697.793 394.156 701.239 394.552 701.455C395.157 701.784 415.563 705.365 420.374 703.729C425.185 702.093 444.693 698.194 444.693 698.194C444.693 698.194 444.693 697.957 444.693 697.546C444.693 697.546 444.428 691.146 443.691 685.076C445.902 684.726 448.313 684.407 450.657 684.212C450.958 685.751 451.578 687.195 452.469 688.434C453.359 689.673 454.498 690.674 455.798 691.362C468.709 698.564 472.915 688.759 472.915 688.759C472.915 688.759 490.372 692.412 500.126 689.788C501.146 690.817 502.016 691.547 502.63 692.041C505.797 694.521 514.322 696.218 523.858 696.342C526.397 696.615 528.956 696.535 531.476 696.105C535.685 695.803 539.86 695.09 543.952 693.975C555.436 690.735 557.959 679.109 558.507 673.831C558.961 673.687 559.283 673.172 559.453 672.205C559.68 671.678 559.814 671.109 559.85 670.528C560.101 668.139 560.511 665.774 561.078 663.45L575.256 664.314C581.588 676.825 587.183 686.774 587.183 686.774L596.786 685.467C592.514 681.745 588.772 677.356 585.681 672.442C580.879 664.633 580.879 627.173 580.879 627.173L581.418 604.363V604.6V603.499C582.306 610.259 589.348 629.868 590.142 630.156C590.718 630.362 591.285 630.547 591.843 630.722L592.353 632.183C596.361 643.747 606.531 673.337 607.249 678.008C608.194 683.872 645.679 686.146 654.081 683.214C662.483 680.282 622.314 672.792 622.314 672.792ZM488.415 543.24L474.673 565.71C469.739 556.45 464.597 547.931 459.947 542.293C472.14 542.736 486.194 543.209 488.415 543.24ZM486.326 485.624C486.859 485.898 487.452 486.006 488.037 485.935C488.623 485.864 489.179 485.618 489.644 485.223L490.816 484.194C491.414 483.688 491.825 482.965 491.973 482.156C492.12 481.347 491.995 480.507 491.619 479.791L492.319 479.04C497.158 478.148 501.933 476.886 506.609 475.264C506.787 479.909 507.986 484.439 510.106 488.474C510.525 491.057 511.302 493.555 512.413 495.882C510.258 495.687 507.914 495.553 505.674 495.573C503.717 495.53 501.76 495.664 499.823 495.975C492.621 497.281 491.714 511.603 491.714 511.603C491.714 511.603 477.244 517.138 468.548 517.333C467.446 517.339 466.35 517.162 465.297 516.809L464.418 516.747L465.599 513.228C465.599 513.228 465.089 513.403 464.248 513.588C464.519 513.143 464.802 512.69 465.098 512.23C470.599 503.639 480.126 492.569 486.326 485.645V485.624ZM456.592 659.448C455.485 661.508 454.491 663.638 453.615 665.826C450.203 666.547 445.553 666.948 443.086 664.653C441.972 663.661 440.574 663.126 439.135 663.141L439.192 663.018C440.893 659.468 442.339 651.515 443.473 643.284C448.974 643.284 454.201 638.274 454.201 638.274L461.129 640.856L461.384 641.381L461.554 641.721L461.828 642.276L461.998 642.626L462.272 643.171L462.452 643.521L462.726 644.056L462.906 644.406L463.17 644.931L463.35 645.28L463.624 645.805L463.804 646.145L464.078 646.659L464.248 646.988L464.522 647.503L464.692 647.822L464.957 648.326L465.127 648.645L465.401 649.149L465.562 649.437L465.836 649.931L465.996 650.219L466.27 650.713L466.412 650.97L466.696 651.474L466.8 651.659C467.291 652.534 467.745 653.367 468.208 654.149L468.274 654.262L468.539 654.715L468.652 654.91L468.888 655.322L469.021 655.538L469.238 655.908L469.37 656.145L469.569 656.484L469.711 656.721L469.9 657.04L470.032 657.266L470.202 657.554L470.335 657.781L470.495 658.048L470.628 658.275L470.779 658.522L470.911 658.738C466.18 659.587 461.374 659.826 456.592 659.448Z" fill="url(#paint0_linear_4_30582)"/>
<path d="M650.754 681.362C642.56 684.232 605.973 682 605.094 676.218C604.394 671.619 594.48 642.677 590.567 631.36L588.998 626.833L608.024 622.368C608.024 622.368 608.723 626 609.687 631.175C611.445 640.62 614.101 655.198 615.046 662.194C616.511 673.028 619.772 671.115 619.772 671.115C619.772 671.115 658.92 678.491 650.754 681.362Z" fill="#FFBDC6"/>
<path d="M547.392 493.351C547.392 493.351 545.927 502.909 558.517 511.87C571.106 520.831 560.275 552.973 560.275 552.973L550.965 553.538C545.053 553.899 539.242 551.751 534.755 547.545C530.267 543.34 527.452 537.404 526.902 530.986C526.902 530.986 532.166 521.727 522.507 497.847L547.392 493.351Z" fill="#FFBDC6"/>
<path d="M492.99 481.591C492.99 481.591 474.871 500.82 466.45 514.072C465.452 515.609 464.54 517.21 463.718 518.866C457.575 531.614 443.284 510.893 448.228 503.732L451.639 500.265L484.493 466.93C484.493 466.93 507.035 447.814 518.443 461.519C529.851 475.223 492.99 481.591 492.99 481.591Z" fill="#FFBDC6"/>
<path d="M533.234 505.327C547.782 505.327 559.575 492.489 559.575 476.653C559.575 460.817 547.782 447.979 533.234 447.979C518.686 447.979 506.893 460.817 506.893 476.653C506.893 492.489 518.686 505.327 533.234 505.327Z" fill="#A66477"/>
<path d="M425.969 663.192C425.969 663.192 406.357 664.468 403.427 663.192C400.497 661.917 381.774 658.738 387.662 673.399C393.551 688.06 415.762 694.109 415.762 694.109L431.829 689.644L425.969 663.192Z" fill="#7679B4"/>
<path opacity="0.05" d="M425.969 663.192C425.969 663.192 406.357 664.468 403.427 663.192C400.497 661.917 381.774 658.738 387.662 673.399C393.551 688.06 415.762 694.109 415.762 694.109L431.829 689.644L425.969 663.192Z" fill="black"/>
<path d="M495.92 600.433L535.285 617.841L557.676 669.613C557.676 669.613 557.969 687.772 543.338 691.918C528.707 696.064 508.216 694.15 502.942 690.004C497.668 685.858 476.015 661.33 476.015 661.33L495.92 600.433Z" fill="#7679B4"/>
<path opacity="0.05" d="M493.245 600.433L527.318 614.333L546.703 655.764C546.703 655.764 546.958 670.302 534.293 673.615C521.628 676.928 503.887 675.395 499.322 672.082C494.757 668.769 476.015 649.128 476.015 649.128L493.245 600.433Z" fill="black"/>
<path d="M459.333 663.193C459.333 663.193 449.088 667.02 444.995 663.193C440.903 659.365 433.578 664.149 433.578 664.149L436.81 684.86C436.81 684.86 451.441 681.352 459.352 682.308L459.333 663.193Z" fill="#FFBDC6"/>
<path opacity="0.05" d="M459.333 663.193C459.333 663.193 449.088 667.02 444.995 663.193C440.903 659.365 433.578 664.149 433.578 664.149L436.81 684.86C436.81 684.86 451.441 681.352 459.352 682.308L459.333 663.193Z" fill="black"/>
<path d="M465.165 640.898L455.817 637.389C455.817 637.389 445.572 647.266 438.804 638.984C432.037 630.702 444.948 596.287 444.948 596.287L458.7 572.068L468.652 606.164L477.726 622.728L465.165 640.898Z" fill="#565388"/>
<path opacity="0.05" d="M465.165 640.898L455.817 637.389C455.817 637.389 445.572 647.266 438.804 638.984C432.037 630.702 444.948 596.287 444.948 596.287L458.7 572.068L468.652 606.164L477.726 622.728L465.165 640.898Z" fill="black"/>
<path d="M554.453 638.984L575.53 642.163L579.632 663.192L553.583 661.598L554.453 638.984Z" fill="#565388"/>
<path opacity="0.05" d="M554.453 638.984L575.53 642.163L579.632 663.192L553.583 661.598L554.453 638.984Z" fill="black"/>
<path opacity="0.1" d="M524.898 523.65C524.898 523.65 533.678 560.287 561.759 533.846L569.367 638.984C569.367 638.984 560.001 655.229 558.536 669.849C557.071 684.469 531.609 624.58 516.392 624.292C501.175 624.004 486.1 600.875 486.1 600.875L503.226 562.479L524.898 523.65Z" fill="black"/>
<path d="M525.191 522.694C525.191 522.694 533.971 559.331 562.052 532.889L569.66 638.027C569.66 638.027 560.294 654.272 558.829 668.892C557.364 683.512 531.902 623.623 516.685 623.335C501.468 623.047 486.393 599.919 486.393 599.919L503.519 561.522L525.191 522.694Z" fill="#F2F1F2"/>
<path opacity="0.1" d="M520.503 499.113C520.503 499.113 508.216 496.88 501.184 498.156C494.152 499.431 493.283 513.444 493.283 513.444C493.283 513.444 473.378 521.089 466.648 518.589C466.648 518.589 433.568 516.037 433.568 526.871C433.568 537.704 444.116 542.736 444.116 542.736C444.116 542.736 490.041 544.423 490.362 544.33C500.901 541.141 490.069 544.33 490.069 544.33L471.043 575.556L488.604 601.997L507.337 587.027C507.337 587.027 509.681 573.004 515.843 565.998C520.229 560.987 525.966 538.435 528.886 525.955C529.5 523.327 529.629 520.592 529.264 517.909C528.899 515.226 528.048 512.649 526.76 510.327L520.503 499.113Z" fill="black"/>
<path opacity="0.1" d="M466.45 514.072C465.452 515.609 464.54 517.21 463.718 518.866C457.575 531.614 443.284 510.893 448.228 503.732L451.64 500.265C450.392 516.706 462.688 514.957 466.45 514.072Z" fill="black"/>
<path opacity="0.1" d="M490.069 543.085H489.738C489.738 543.085 500.608 539.896 490.069 543.085Z" fill="black"/>
<path d="M519.624 499.113C519.624 499.113 507.337 496.88 500.305 498.156C493.273 499.431 492.404 513.444 492.404 513.444C492.404 513.444 472.499 521.089 465.769 518.589L466.941 515.08C466.941 515.08 449.097 521.13 451.139 500.707C451.139 500.707 432.699 515.996 432.699 526.83C432.699 537.663 443.237 542.736 443.237 542.736C443.237 542.736 489.162 544.423 489.483 544.33C500.022 541.141 489.19 544.33 489.19 544.33L470.164 575.556L487.725 601.997L506.458 587.027C506.458 587.027 508.802 573.004 514.965 565.998C519.35 560.987 525.087 538.435 528.008 525.955C528.622 523.327 528.75 520.592 528.385 517.909C528.02 515.226 527.169 512.649 525.881 510.327L519.624 499.113Z" fill="#565388"/>
<path opacity="0.1" d="M579.924 602.666V604.414C579.8 603.839 579.8 603.241 579.924 602.666Z" fill="black"/>
<path opacity="0.1" d="M609.687 631.216C603.466 633.302 596.821 633.366 590.567 631.401L588.998 626.874L608.024 622.409C608.024 622.409 608.714 626.072 609.687 631.216Z" fill="black"/>
<path opacity="0.1" d="M552.704 507.076C552.704 507.076 569.093 518.228 574.953 519.823C580.813 521.418 596.03 527.148 596.03 527.148L602.173 549.783C602.173 549.783 604.517 566.985 602.173 576.533C599.829 586.081 577.883 604.25 579.055 601.379L578.469 626.545C578.469 626.545 578.469 663.182 583.195 670.785C587.921 678.388 574.263 663.295 574.263 663.295C574.263 663.295 557.723 636.689 555.681 619.806C553.64 602.923 556.844 537.982 556.844 537.982L553.914 533.517C553.914 533.517 560.02 516.315 552.704 507.076Z" fill="black"/>
<path d="M553.583 507.076C553.583 507.076 569.972 518.228 575.832 519.823C581.692 521.418 596.909 527.148 596.909 527.148L603.052 549.783C603.052 549.783 605.396 566.985 603.052 576.533C600.708 586.08 610.954 629.426 610.954 629.426C610.954 629.426 601.502 634.179 588.412 629.426C587.533 629.107 578.753 604.26 579.906 601.39L579.32 626.555C579.32 626.555 579.32 663.192 584.045 670.795C587.059 675.603 590.709 679.898 594.877 683.543L585.51 684.819C585.51 684.819 558.555 636.751 556.504 619.899C554.453 603.046 557.676 538.013 557.676 538.013L554.746 533.548C554.746 533.548 560.899 516.315 553.583 507.076Z" fill="#565388"/>
<path d="M473.671 660.023C473.671 660.023 454.059 629.158 454.938 614.754C454.938 614.754 452.594 634.508 449.967 635.784C447.339 637.06 420.988 628.129 420.988 628.129C420.988 628.129 419.816 618.87 422.746 615.701C425.676 612.532 434.75 553.569 434.75 553.569C434.75 553.569 437.973 537.643 452.018 536.686C466.062 535.729 497.678 613.468 497.678 613.468C497.678 613.468 502.356 660.023 473.671 660.023Z" fill="#7679B4"/>
<path d="M427.434 617.954C427.434 617.954 428.02 662.554 420.705 669.89C413.389 677.226 442.075 681.043 442.075 681.043C442.075 681.043 437.103 670.209 441.196 661.608C445.288 653.007 447.925 617.954 447.925 617.954H427.434Z" fill="#FFBDC6"/>
<path opacity="0.05" d="M428.89 669.283C428.89 669.283 425.96 661.32 418.058 667.689C418.058 667.689 411.036 685.529 398.739 688.08C386.443 690.632 396.982 698.276 397.568 698.595C398.154 698.914 418.058 702.422 422.737 700.828C427.415 699.233 446.441 695.416 446.441 695.416C446.441 695.416 445.562 674.386 442.661 672.781C439.759 671.176 441.186 682.319 428.89 669.283Z" fill="black"/>
<path d="M428.89 669.89C428.89 669.89 425.96 661.927 418.058 668.296C418.058 668.296 411.036 686.136 398.739 688.687C386.443 691.239 396.982 698.883 397.568 699.202C398.154 699.521 418.058 703.03 422.737 701.435C427.415 699.84 446.451 696.033 446.451 696.033C446.451 696.033 445.572 675.004 442.67 673.399C439.768 671.794 441.186 682.946 428.89 669.89Z" fill="#7679B4"/>
<path d="M484.001 469.687C486.472 473.867 489.135 477.909 491.978 481.797C492.25 482.142 492.454 482.543 492.578 482.977C492.703 483.41 492.746 483.866 492.705 484.318C492.663 484.77 492.538 485.208 492.337 485.606C492.136 486.003 491.863 486.353 491.534 486.633L490.391 487.61C490.064 487.888 489.689 488.093 489.288 488.21C488.887 488.327 488.469 488.356 488.058 488.293C487.647 488.231 487.252 488.079 486.896 487.847C486.54 487.614 486.23 487.306 485.986 486.941C483.425 483.077 480.219 479.772 476.535 477.198C476.114 476.913 475.763 476.522 475.51 476.057C475.257 475.593 475.111 475.07 475.083 474.531C475.055 473.993 475.147 473.454 475.35 472.962C475.553 472.47 475.862 472.039 476.251 471.704L479.512 468.906C479.847 468.618 480.234 468.408 480.648 468.291C481.061 468.174 481.492 468.152 481.914 468.225C482.336 468.299 482.739 468.466 483.099 468.718C483.458 468.97 483.765 469.3 484.001 469.687Z" fill="#565388"/>
<path opacity="0.1" d="M550.786 504.668C547.005 498.876 547.723 494.287 547.723 494.287L522.819 498.793C524.548 502.996 525.971 507.341 527.072 511.788C531.242 513.114 535.669 513.151 539.857 511.893C544.046 510.636 547.83 508.134 550.786 504.668Z" fill="black"/>
<path d="M533.385 511.85C546.315 511.85 556.797 500.44 556.797 486.365C556.797 472.29 546.315 460.881 533.385 460.881C520.456 460.881 509.974 472.29 509.974 486.365C509.974 500.44 520.456 511.85 533.385 511.85Z" fill="#FFBDC6"/>
<path opacity="0.1" d="M523.083 473.083C525.295 472.681 527.261 471.272 529.501 471.148C532.336 470.994 534.898 472.97 536.892 475.007C538.886 477.044 540.824 479.369 543.565 480.254C545.316 480.701 547.123 480.833 548.914 480.645C549.91 480.7 550.898 480.427 551.75 479.863C552.178 479.43 552.503 478.89 552.695 478.289C553.459 476.372 553.846 474.303 553.832 472.214C553.817 470.125 553.401 468.062 552.61 466.159C552.388 465.764 552.295 465.301 552.345 464.842C552.431 464.569 552.569 464.32 552.751 464.111C554.642 461.683 556.636 459.255 557.402 456.313C558.167 453.37 557.232 449.749 554.443 448.442C553.748 448.116 552.998 447.948 552.241 447.948C551.484 447.948 550.734 448.116 550.039 448.442C548.735 449.09 547.723 450.294 546.258 450.613C543.886 451.148 541.854 449.07 540.001 447.526C537.115 445.171 533.666 443.771 530.068 443.493C528.494 443.297 526.9 443.527 525.427 444.162C524.051 445.011 522.781 446.048 521.647 447.248C517.422 450.963 511.505 452.002 506.212 454.029C505.201 454.42 504.076 454.996 503.887 456.086C503.698 457.177 504.832 458.278 505.967 458.751C507.101 459.224 508.405 459.533 509.161 460.49C510.106 461.724 509.804 463.473 509.974 465.027C510.324 468.113 512.809 469.79 515.56 470.685C517.838 471.478 520.824 473.494 523.083 473.083Z" fill="black"/>
<path d="M523.083 472.445C525.295 472.043 527.261 470.634 529.501 470.51C532.336 470.356 534.898 472.332 536.892 474.369C538.886 476.406 540.824 478.731 543.565 479.616C545.316 480.063 547.123 480.195 548.914 480.007C549.91 480.062 550.898 479.789 551.75 479.225C552.178 478.792 552.503 478.252 552.695 477.651C553.459 475.734 553.846 473.665 553.832 471.576C553.817 469.487 553.401 467.424 552.61 465.521C552.388 465.126 552.295 464.663 552.345 464.204C552.431 463.931 552.569 463.682 552.751 463.473C554.642 461.045 556.636 458.617 557.402 455.675C558.167 452.732 557.232 449.111 554.443 447.804C553.748 447.478 552.998 447.31 552.241 447.31C551.484 447.31 550.734 447.478 550.039 447.804C548.735 448.452 547.723 449.656 546.258 449.975C543.886 450.51 541.854 448.432 540.001 446.888C537.144 444.588 533.745 443.218 530.2 442.938C528.626 442.741 527.032 442.971 525.56 443.606C524.184 444.455 522.913 445.493 521.779 446.693C517.554 450.407 511.637 451.446 506.345 453.473C505.333 453.864 504.209 454.44 504.02 455.531C503.831 456.621 504.965 457.722 506.099 458.195C507.233 458.669 508.537 458.977 509.294 459.934C510.239 461.169 509.936 462.918 510.106 464.471C510.456 467.558 512.942 469.235 515.692 470.13C517.838 470.84 520.824 472.856 523.083 472.445Z" fill="#A66477"/>
<path opacity="0.05" d="M504.19 595.042C504.19 595.042 520.909 598.128 525.087 607.954C529.265 617.779 554.387 644.365 554.387 644.365" fill="black"/>
<g opacity="0.05">
<path opacity="0.05" d="M450.553 633.562C447.916 634.837 421.574 625.917 421.574 625.917C421.251 623.145 421.279 620.337 421.659 617.573C420.147 621.545 420.988 628.15 420.988 628.15C420.988 628.15 447.33 637.07 449.967 635.794C450.836 635.372 451.677 632.924 452.415 629.827C451.829 631.813 451.205 633.273 450.553 633.562Z" fill="black"/>
<path opacity="0.05" d="M435.298 551.614C435.082 552.261 434.899 552.921 434.75 553.59C434.75 553.59 428.398 594.877 424.608 610.176C428.115 597.758 434.731 555.287 435.298 551.614Z" fill="black"/>
<path opacity="0.05" d="M474.257 657.781C474.257 657.781 454.645 626.915 455.524 612.511C455.524 612.511 455.316 614.302 454.948 616.833C455.836 631.895 473.671 660.023 473.671 660.023C487.309 660.023 493.406 649.509 496.043 638.469C493.132 648.634 486.979 657.781 474.257 657.781Z" fill="black"/>
</g>
<path d="M423.739 629.066C423.739 629.066 441.621 639.786 448.067 634.683C454.513 629.58 450.411 621.617 450.411 621.617L445.43 612.697H428.748L423.191 623.212L423.739 629.066Z" fill="#7679B4"/>
<path d="M545.682 671.166C545.682 671.166 546.854 645.682 516.997 646C487.139 646.319 515.824 646 515.824 646C515.824 646 504.114 642.173 489.483 651.145C474.852 660.116 458.161 658.151 458.161 658.151C458.161 658.151 444.693 682.37 457.282 689.377C469.871 696.383 473.964 686.774 473.964 686.774C473.964 686.774 499.719 692.185 505.579 684.86C509.762 689.373 515.072 692.447 520.847 693.702C526.623 694.957 532.61 694.336 538.064 691.918C538.064 691.918 552.704 684.86 545.682 671.166Z" fill="#7679B4"/>
</g>
<defs>
<linearGradient id="paint0_linear_4_30582" x1="519.189" y1="704.14" x2="519.189" y2="439.553" gradientUnits="userSpaceOnUse">
<stop stop-color="#808080" stop-opacity="0.25"/>
<stop offset="0.54" stop-color="#808080" stop-opacity="0.12"/>
<stop offset="1" stop-color="#808080" stop-opacity="0.1"/>
</linearGradient>
<clipPath id="clip0_4_30582">
<rect width="936" height="748" fill="white"/>
</clipPath>
</defs>
</svg>
