<svg width="600" height="600" viewBox="0 0 777 673" fill="none" xmlns="http://www.w3.org/2000/svg">
<path opacity="0.1" d="M249.83 26.3967C273.77 3.24158 311.36 -1.46035 345.567 0.363019C453.024 6.16234 550.021 62.4588 633.92 126.142C664.292 149.195 694.198 174.039 713.914 205.787C754.048 270.424 742.148 359.955 686.334 413.195C667.349 431.311 644.334 445.197 620.698 457.513C578.698 479.402 533.346 496.969 485.66 501.975C451.648 505.537 417.216 502.642 383.413 497.661C288.944 483.767 196.241 452.997 118.533 400.423C84.4511 377.353 52.3211 348.677 38.2744 311.349C24.2278 274.02 33.2189 226.765 68.0555 204.648C82.4522 195.514 99.6644 191.386 116.511 187.511C141.314 181.805 166.514 176.183 188.891 164.593C212.007 152.614 239.384 129.451 234.78 102.97C229.833 74.5049 225.944 49.4927 249.83 26.3967Z" fill="#2271FF"/>
<path opacity="0.1" d="M135.396 135.824C148.927 135.824 159.896 123.919 159.896 109.233C159.896 94.5476 148.927 82.6425 135.396 82.6425C121.865 82.6425 110.896 94.5476 110.896 109.233C110.896 123.919 121.865 135.824 135.396 135.824Z" fill="#2271FF"/>
<path opacity="0.1" d="M84.07 62.3828C92.4463 62.3828 99.2366 55.013 99.2366 45.9219C99.2366 36.8307 92.4463 29.4609 84.07 29.4609C75.6937 29.4609 68.9033 36.8307 68.9033 45.9219C68.9033 55.013 75.6937 62.3828 84.07 62.3828Z" fill="#2271FF"/>
<path opacity="0.1" d="M719.888 106.701C725.042 106.701 729.221 102.166 729.221 96.571C729.221 90.9764 725.042 86.4412 719.888 86.4412C714.733 86.4412 710.554 90.9764 710.554 96.571C710.554 102.166 714.733 106.701 719.888 106.701Z" fill="#2271FF"/>
<path opacity="0.1" d="M536.604 673C572.79 673 602.124 669.825 602.124 665.909C602.124 661.993 572.79 658.818 536.604 658.818C500.419 658.818 471.084 661.993 471.084 665.909C471.084 669.825 500.419 673 536.604 673Z" fill="#2271FF"/>
<path d="M166.444 411.364L166.157 428.204L163.854 564.712L144.146 614.804L76.2222 615.648V419.121L147.109 413.027L166.444 411.364Z" fill="#5F5D7E"/>
<path opacity="0.1" d="M166.444 411.364L166.157 428.204L163.854 564.712L144.146 614.804L76.2222 615.648V419.121L147.109 413.027L166.444 411.364Z" fill="black"/>
<path d="M166.444 411.364L166.157 428.204L163.854 564.712L144.146 614.804L149.333 428.525L149.318 428.407L147.109 413.027L166.444 411.364Z" fill="#5F5D7E"/>
<path opacity="0.1" d="M147.109 413.027L166.444 411.364L166.157 428.204L149.318 428.407L76.2222 429.293V419.121L147.109 413.027Z" fill="black"/>
<path d="M777 419.121V614.517H761.188L697.923 564.434V413.609L754.444 407.844L757.913 409.574L761.188 411.212L777 419.121Z" fill="#5F5D7E"/>
<path opacity="0.1" d="M777 409.574H761.188V614.517H777V409.574Z" fill="black"/>
<path opacity="0.1" d="M777 409.574V420.81L761.188 421.004L697.923 421.764V413.609L754.444 407.844L757.913 409.574L761.188 411.212V409.574H777Z" fill="black"/>
<path d="M777 403.201V419.121L0 428.525V408.266L73.1111 392.227L709.333 387.162L777 403.201Z" fill="#5F5D7E"/>
<path opacity="0.1" d="M777 403.201V419.121L0 428.525V408.266L777 403.201Z" fill="black"/>
<path d="M538.689 164.584H302.027C292.224 164.584 284.278 173.209 284.278 183.848V374.668C284.278 385.307 292.224 393.932 302.027 393.932H538.689C548.491 393.932 556.438 385.307 556.438 374.668V183.848C556.438 173.209 548.491 164.584 538.689 164.584Z" fill="#474157"/>
<path d="M534.94 185.274H306.18V372.364H534.94V185.274Z" fill="#EDEDF4"/>
<path d="M297.251 282.884C299.322 282.884 301 281.062 301 278.815C301 276.568 299.322 274.746 297.251 274.746C295.181 274.746 293.502 276.568 293.502 278.815C293.502 281.062 295.181 282.884 297.251 282.884Z" fill="#E6E8EC"/>
<path d="M545.074 285.965C548.489 285.965 551.258 282.96 551.258 279.254C551.258 275.547 548.489 272.543 545.074 272.543C541.659 272.543 538.891 275.547 538.891 279.254C538.891 282.96 541.659 285.965 545.074 285.965Z" fill="#E6E8EC"/>
<path d="M445.223 279.541L415.971 260.244C415.363 259.878 414.679 259.691 413.984 259.701C413.289 259.71 412.609 259.916 412.01 260.298C411.411 260.679 410.914 261.224 410.568 261.878C410.222 262.531 410.039 263.271 410.037 264.025V301.556C410.039 302.31 410.222 303.05 410.568 303.704C410.914 304.358 411.411 304.902 412.01 305.284C412.609 305.666 413.289 305.871 413.984 305.881C414.679 305.89 415.363 305.703 415.971 305.338L445.223 287.121C445.843 286.743 446.359 286.193 446.718 285.527C447.078 284.861 447.267 284.103 447.267 283.331C447.267 282.559 447.078 281.801 446.718 281.135C446.359 280.469 445.843 279.919 445.223 279.541ZM467.219 282.791C467.219 273.942 464.801 265.292 460.272 257.935C455.742 250.577 449.304 244.843 441.772 241.456C434.239 238.07 425.951 237.184 417.955 238.91C409.958 240.637 402.613 244.898 396.848 251.155C391.083 257.412 387.157 265.384 385.567 274.063C383.976 282.741 384.792 291.737 387.912 299.912C391.032 308.087 396.316 315.075 403.095 319.991C409.874 324.907 417.844 327.531 425.997 327.531C436.929 327.531 447.414 322.817 455.145 314.427C462.876 306.036 467.219 294.657 467.219 282.791ZM392.754 282.791C392.754 275.655 394.704 268.68 398.357 262.746C402.009 256.813 407.201 252.189 413.275 249.458C419.35 246.727 426.033 246.013 432.482 247.405C438.93 248.797 444.853 252.233 449.502 257.279C454.151 262.325 457.317 268.754 458.6 275.752C459.883 282.751 459.224 290.005 456.708 296.598C454.192 303.19 449.932 308.825 444.465 312.79C438.998 316.754 432.571 318.87 425.997 318.87C421.631 318.871 417.308 317.939 413.274 316.126C409.241 314.313 405.576 311.656 402.489 308.305C399.402 304.955 396.953 300.977 395.283 296.599C393.613 292.221 392.753 287.529 392.754 282.791Z" fill="#2271FF"/>
<path d="M625.24 429.791C625.084 428.759 624.788 427.758 624.361 426.82C624.952 424.634 625.333 423.291 625.333 423.291C625.333 423.291 625.333 422.971 625.24 422.447C624.776 419.354 623.295 416.548 621.072 414.549C618.848 412.55 616.032 411.493 613.146 411.575C608.479 411.667 599.628 412.005 589.812 413.204C590.372 408.941 591.041 403.842 591.741 398.592L593.024 398.744C593.32 398.744 593.631 398.744 593.942 398.794H594.354C595.377 398.864 596.389 398.528 597.201 397.849C597.4 397.639 597.548 397.378 597.632 397.091C597.715 396.804 597.732 396.499 597.68 396.203C597.629 395.907 597.51 395.629 597.336 395.395C597.161 395.161 596.936 394.977 596.68 394.86C597.827 394.984 598.985 394.796 600.048 394.313C601.111 393.829 602.047 393.066 602.77 392.092C603.43 391.089 603.785 389.888 603.785 388.656C603.785 387.424 603.43 386.223 602.77 385.22C601.129 382.688 597.652 380.999 597.466 378.02C597.364 376.331 598.407 374.812 599.223 373.318C601.191 369.588 601.978 365.26 601.463 360.998C600.947 356.736 599.158 352.776 596.369 349.724C595.274 348.545 594.121 347.432 592.916 346.389C591.204 339.568 589.416 333.474 588.887 333.28C588.202 333.035 587.028 331.431 585.908 330.055C586.01 328.894 585.992 327.725 585.853 326.569C585.029 320.66 579.631 316.439 576.66 311.222C573.689 306.005 573.152 299.615 573.914 293.638C574.677 287.662 576.598 281.879 578.161 276.046C579.328 271.716 580.3 267.115 578.993 262.818C578.068 259.754 576.053 257.103 573.977 254.613C568.991 248.628 563.243 243.023 556.15 239.418C551.219 236.896 545.819 235.642 540.369 235.755H540.314L539.459 235.805L538.852 235.848L538.246 235.915L537.6 235.983C536.939 236.075 536.286 236.185 535.632 236.329C530.895 235.186 526.058 234.597 521.204 234.573H520.574C519.135 234.481 517.702 234.847 516.452 235.628C514.726 236.937 514.508 239.283 513.987 241.326C513.051 244.745 511.077 247.72 508.387 249.768C506.528 251.22 504.342 252.3 502.569 253.82C500.796 255.339 499.411 257.618 499.886 259.864C500.282 261.746 501.9 263.147 503.774 264C503.549 264.304 503.316 264.599 503.098 264.912C503.463 265.072 503.876 265.216 504.21 265.334C506.543 266.085 509.056 266.178 511.42 266.862C512.071 267.051 512.71 267.285 513.333 267.562C511.23 271.856 510.132 276.645 510.137 281.508C510.146 286.908 511.495 292.205 514.044 296.843C516.592 301.481 520.245 305.287 524.619 307.862C524.619 308.149 524.619 308.428 524.619 308.706C524.86 317.519 524.246 328.24 520.092 330.055C515.939 331.87 511.964 333.921 509.514 335.246L508.737 335.694C508.091 335.373 507.446 335.035 506.816 334.681C506.816 334.681 503.51 334.259 504.086 336.994C504.086 336.994 494.091 335.306 488.608 339.94C483.124 344.574 474.126 354.248 472.36 356.772C470.594 359.296 456.944 364.817 456.944 364.817C456.944 364.817 461.246 358.292 459.387 350.298C459.387 350.298 457.333 340.657 458.313 336.791C459.293 332.925 461.837 318.574 461.837 318.574C461.837 318.574 462.194 303.43 454.58 296.483C446.966 289.536 441.669 283.821 444.609 290.574C445.894 293.67 447.332 296.688 448.918 299.615C448.918 299.615 430.71 304.308 437.173 311.636C443.637 318.963 445.394 318.971 445.394 318.971C445.394 318.971 443.24 337.061 442.843 340.43C442.447 343.798 438.954 369.46 438.954 369.46C438.954 369.46 438.76 381.666 440.72 383.557C440.72 383.557 442.003 391.416 450.115 391.155C450.115 391.155 465.578 390.733 469.887 388.842C474.196 386.951 489.067 376.846 490.638 377.479C490.752 377.529 490.855 377.604 490.941 377.699C491.025 377.777 491.103 377.861 491.174 377.952C489.619 381.692 485.932 394.388 487.503 400.626C487.503 400.626 486.134 418.294 494.356 423.975C494.356 423.975 506.294 445.856 501.791 457.632C501.433 458.585 501.114 459.463 500.819 460.316C493.982 454.162 483.552 448.498 467.623 445.366C465.998 445.045 464.38 444.657 462.778 444.235C458.251 443.045 445.799 441.956 439.872 463.321C438.49 468.288 436.731 473.121 434.614 477.773C432.281 482.897 429.691 490.241 429.637 497.526C429.504 507.74 434.366 517.862 452.006 521.576C452.2 529.173 453.001 538.223 455.397 544.731C460.289 557.984 468.121 579.443 468.121 579.443C468.121 579.443 477.517 601.323 478.108 610.153C478.489 615.935 479.049 623.516 478.66 628.724C478.66 629.045 478.613 629.349 478.582 629.653C477.776 630.597 476.897 631.464 475.953 632.244C474.584 633.089 470.081 638.348 470.081 639.605C470.091 640.811 470.189 642.013 470.377 643.201C468.246 645.219 467.079 647.422 467.079 649.617C467.079 661.03 496.922 670.282 533.734 670.282C570.547 670.282 600.382 660.996 600.382 649.617C600.382 639.2 575.493 630.59 543.153 629.172C549.897 626.251 555.886 623.187 558.367 620.73C558.899 620.28 559.306 619.678 559.541 618.991L553.28 603.214C553.28 603.214 552.79 603.332 552.067 603.56L551.631 602.851C548.847 598.25 543.488 589.083 543.488 586.593C543.488 585.673 542.072 579.789 540.019 571.727V545.854C560.443 549.23 586.763 544.638 586.763 544.638L586.88 544.571H587.393V544.267C590.932 542.14 608.634 530.887 613.884 515.962C615.44 511.607 613.503 505.368 609.653 498.7C612.344 491.448 618.987 472.717 618.326 465.246C618.326 464.849 618.279 464.402 618.279 463.963C618.342 463.199 618.368 462.433 618.357 461.667C619.134 450.693 625.357 430.644 625.357 430.644C625.357 430.644 625.318 430.298 625.24 429.791ZM493.018 381.033C494.433 383.735 495.95 387.187 496.549 388.588C496.549 388.588 494.48 384.452 493.057 381.033H493.018ZM494.496 617.48L494.348 617.539V616.695C494.263 614.494 494.313 612.288 494.496 610.094C494.517 608.911 494.288 607.738 493.827 606.667C491.429 600.13 489.827 593.283 489.059 586.297C488.281 578.936 487.636 570.908 488.04 568.865C488.647 565.734 489.144 542.013 488.39 530.321L500.43 533.259L514.43 564.24C514.43 564.24 523.437 579.367 526.229 591.303V603.256C525.412 606.817 523.985 610.179 522.021 613.167C520.162 615.927 518.35 618.721 516.67 621.608C516.157 622.503 515.589 623.423 515.021 624.284C514.834 624.284 505.633 624.867 504.07 626.741C503.106 627.897 501.426 629.72 501.146 631.552L500.749 631.62C498.944 625.787 494.534 617.48 494.534 617.48H494.496Z" fill="url(#paint0_linear_1_195)"/>
<path opacity="0.1" d="M553.723 606.633L550.612 617.607L537.39 630.058L517.945 636.119C517.945 636.119 508.807 630.691 511.918 629.636C512.781 629.34 513.808 628.268 514.85 626.867C513.761 631.172 522.418 625.626 522.418 625.626C522.418 625.626 544.779 608.321 547.112 606.422C548.642 605.32 550.322 604.486 552.09 603.948C553.062 605.595 553.723 606.633 553.723 606.633Z" fill="black"/>
<path d="M553.723 606.633L550.612 617.607L537.39 630.058L517.946 636.119C517.946 636.119 508.807 630.691 511.918 629.636C512.781 629.34 513.808 628.268 514.85 626.867C515.789 625.567 516.656 624.209 517.448 622.798C519.112 619.894 520.917 617.092 522.76 614.357C525.45 610.201 527.137 605.381 527.668 600.335C529.029 588.728 515.223 565.303 515.223 565.303L490.14 509.378L525.14 514.021C525.14 514.021 544.001 584.297 544.001 587.673C544.001 590.206 549.321 599.365 552.09 603.982C553.062 605.594 553.723 606.633 553.723 606.633Z" fill="#FDC2CC"/>
<path d="M534.31 671.607C570.874 671.607 600.514 662.329 600.514 650.883C600.514 639.438 570.874 630.159 534.31 630.159C497.746 630.159 468.106 639.438 468.106 650.883C468.106 662.329 497.746 671.607 534.31 671.607Z" fill="#5F5D7E"/>
<path d="M559.945 620.139C559.709 620.825 559.306 621.429 558.779 621.887C553.972 626.673 535.998 633.789 524.891 637.655C521.98 638.758 519.011 639.674 516.001 640.399C513.279 640.61 507.64 638.711 503.751 636.119C499.862 633.528 503.362 629.847 504.933 627.948C506.504 626.048 515.822 625.483 515.822 625.483C511.35 633.561 522.425 626.47 522.425 626.47C522.425 626.47 544.787 609.165 547.12 607.266C549.453 605.367 553.731 604.311 553.731 604.311L559.945 620.139Z" fill="#2271FF"/>
<path opacity="0.3" d="M559.945 620.139C559.709 620.825 559.306 621.429 558.779 621.887C553.972 626.673 535.998 633.789 524.891 637.655C521.98 638.758 519.011 639.674 516.001 640.399C513.279 640.61 507.64 638.711 503.751 636.119C499.862 633.528 503.362 629.847 504.933 627.948C506.504 626.048 515.822 625.483 515.822 625.483C511.35 633.561 522.425 626.47 522.425 626.47C522.425 626.47 544.787 609.165 547.12 607.266C549.453 605.367 553.731 604.311 553.731 604.311L559.945 620.139Z" fill="black"/>
<path opacity="0.1" d="M558.779 621.904C553.972 626.69 535.998 633.806 524.891 637.672C534.956 628.42 551.833 623.583 558.779 621.904Z" fill="black"/>
<path opacity="0.1" d="M534.31 648.351C541.625 648.351 547.556 646.495 547.556 644.206C547.556 641.917 541.625 640.061 534.31 640.061C526.995 640.061 521.064 641.917 521.064 644.206C521.064 646.495 526.995 648.351 534.31 648.351Z" fill="black"/>
<path d="M540.555 534.888H526.944V644.206H540.555V534.888Z" fill="#5F5D7E"/>
<path opacity="0.1" d="M540.555 540.308V552.97C537.833 552.058 531.619 548.217 526.944 545.195V534.88H529.783L540.555 540.308Z" fill="black"/>
<path d="M508.488 487.295C508.488 487.295 553.428 474.742 564.612 465.347C575.797 455.952 619.718 500.16 613.916 516.84C608.113 533.521 586.989 545.601 586.989 545.601C586.989 545.601 528.57 555.916 518.622 534.399C508.674 512.881 508.488 487.295 508.488 487.295Z" fill="#474157"/>
<path opacity="0.1" d="M508.488 487.295C508.488 487.295 553.428 474.742 564.612 465.347C575.797 455.952 619.718 500.16 613.916 516.84C608.113 533.521 586.989 545.601 586.989 545.601C586.989 545.601 528.57 555.916 518.622 534.399C508.674 512.881 508.488 487.295 508.488 487.295Z" fill="black"/>
<path d="M504.599 482.23C504.599 482.23 549.539 469.678 560.723 460.282C571.908 450.887 615.829 495.095 610.027 511.775C604.224 528.456 583.1 540.536 583.1 540.536C583.1 540.536 524.681 550.851 514.733 529.334C504.786 507.816 504.599 482.23 504.599 482.23Z" fill="#474157"/>
<path d="M462.918 367.122L458.057 365.205C458.057 365.205 462.334 358.663 460.491 350.644C460.491 350.644 458.446 340.97 459.418 337.053C460.39 333.136 462.918 318.777 462.918 318.777C462.918 318.777 463.276 303.582 455.708 296.618C448.14 289.654 442.89 283.956 445.807 290.709C447.08 293.816 448.508 296.845 450.084 299.784C450.084 299.784 432.001 304.486 438.418 311.847C444.834 319.208 446.584 319.199 446.584 319.199C446.584 319.199 444.446 337.348 444.057 340.725C443.668 344.102 440.168 369.848 440.168 369.848C440.168 369.848 439.973 382.088 441.918 383.988C442.35 386.273 443.537 388.308 445.257 389.707C446.977 391.107 449.109 391.775 451.251 391.585C452.636 391.56 469.14 371.764 462.918 367.122Z" fill="#FDC2CC"/>
<path d="M580.362 328.291V340.109L569.084 344.102L549.873 359.448L544.779 363.517L522.029 353.598L507.64 337.137C507.64 337.137 508.34 336.724 509.553 336.04L510.331 335.593C512.765 334.267 516.6 332.216 520.839 330.384C525.078 328.552 525.575 317.815 525.334 308.968V308.124C525.14 301.919 524.557 296.846 524.557 296.846C524.557 296.846 526.929 296.356 530.382 295.799C539.957 294.254 557.822 292.169 556.251 298.534C555.792 300.698 555.792 302.947 556.251 305.11C556.298 305.347 556.344 305.591 556.399 305.828C558.017 313.501 563.025 321.537 563.025 321.537L578.581 327.615L579.017 327.784L580.362 328.291Z" fill="#FDC2CC"/>
<path d="M580.362 331.878V328.291C581.585 328.062 582.834 328.062 584.057 328.291C585.418 328.713 588 333.145 589.167 333.567C590.333 333.989 597.473 362.901 596.696 365.433C595.918 367.966 588.568 425.14 588.568 425.14L573.751 442.867L570.834 394.118L580.362 365.205V331.878Z" fill="#FDC2CC"/>
<path d="M503.557 464.621C503.557 464.621 490.016 467.787 491.734 472.43C493.453 477.072 501.029 477.283 501.029 477.283L503.557 464.621Z" fill="#FDC2CC"/>
<path d="M522.418 370.878L512.112 394.979L499.862 404.686L497.723 389.686C497.723 389.686 493.586 379.767 491.804 378.087C491.718 377.992 491.615 377.917 491.501 377.868C489.946 377.235 475.168 387.364 470.89 389.264C466.612 391.163 451.251 391.585 451.251 391.585L458.057 365.205C458.057 365.205 471.668 359.718 473.418 357.186C475.168 354.653 484.112 344.946 489.557 340.303C495.001 335.66 504.933 337.348 504.933 337.348L505.089 337.416L507.64 338.615L515.029 358.241L522.418 370.878Z" fill="#FDC2CC"/>
<path d="M495.39 611.292C495.207 613.493 495.158 615.703 495.242 617.911C495.297 620.266 495.39 622.266 495.39 622.266L490.918 632.396C490.918 632.396 475.557 637.883 478.085 635.562C478.963 634.76 479.415 632.675 479.64 629.914C480.021 624.698 479.469 617.092 479.088 611.292C478.504 602.429 469.171 580.481 469.171 580.481C469.171 580.481 461.393 558.955 456.532 545.66C451.671 532.364 453.421 508.306 453.421 508.306C453.421 508.306 454.199 490.157 457.699 484.67C461.199 479.183 474.81 477.283 474.81 477.283L481.196 500.27C481.196 500.27 486.446 521.796 488.39 524.961C490.335 528.127 489.751 565.902 488.973 569.912C488.577 571.963 489.246 580.042 489.992 587.403C490.754 594.404 492.344 601.27 494.721 607.831C495.185 608.914 495.414 610.098 495.39 611.292Z" fill="#FDC2CC"/>
<path opacity="0.1" d="M495.39 622.266L490.918 632.396C490.918 632.396 475.557 637.883 478.084 635.562C478.963 634.76 479.414 632.675 479.64 629.914C480.192 629.315 480.783 628.657 481.39 627.981C485.299 623.583 490.034 620.148 495.273 617.911C495.297 620.266 495.39 622.266 495.39 622.266Z" fill="black"/>
<path d="M502.406 637.343C502.41 637.382 502.41 637.422 502.406 637.461C501.628 641.471 488.794 646.958 488.794 646.958C488.794 646.958 480.628 648.435 475.961 649.701C475.604 649.806 475.233 649.843 474.864 649.811C471.263 649.516 471.1 641.994 471.1 640.838C471.1 639.681 475.572 634.296 476.933 633.452C478.472 632.066 479.917 630.563 481.258 628.952C485.249 624.466 490.082 620.963 495.429 618.679C495.429 618.679 503.028 633.181 502.406 637.343Z" fill="#2271FF"/>
<path opacity="0.3" d="M502.406 637.343C502.41 637.382 502.41 637.422 502.406 637.461C501.628 641.471 488.794 646.958 488.794 646.958C488.794 646.958 480.628 648.435 475.961 649.701C475.604 649.806 475.233 649.843 474.864 649.811C471.263 649.516 471.1 641.994 471.1 640.838C471.1 639.681 475.572 634.296 476.933 633.451C478.497 632.048 479.963 630.522 481.32 628.885C485.227 624.465 489.965 621.011 495.211 618.755L495.429 618.662C495.429 618.662 503.028 633.181 502.406 637.343Z" fill="black"/>
<path opacity="0.1" d="M502.406 637.343C502.41 637.382 502.41 637.422 502.406 637.461C501.628 641.471 488.795 646.958 488.795 646.958C488.795 646.958 480.628 648.435 475.961 649.701C475.604 649.806 475.233 649.843 474.865 649.811C479.096 646.662 489.355 639.107 490.739 638.938C492.123 638.77 498.945 636.642 502.406 637.343Z" fill="black"/>
<path opacity="0.1" d="M556.43 305.828C551.623 310.124 547.206 309.508 540.493 309.508C535.64 309.508 529.332 311.357 525.358 308.985C525.195 302.392 524.58 296.846 524.58 296.846C524.58 296.846 558.413 289.882 556.275 298.534C555.785 300.944 555.839 303.446 556.43 305.828Z" fill="black"/>
<path d="M566.557 281.685C566.557 289.689 563.627 297.365 558.413 303.024C553.198 308.684 546.126 311.863 538.751 311.863C538.036 311.863 537.32 311.863 536.62 311.779C531.228 311.327 526.074 309.179 521.79 305.597C517.506 302.015 514.277 297.155 512.499 291.611C510.721 286.068 510.471 280.082 511.78 274.387C513.088 268.692 515.899 263.535 519.867 259.547C523.835 255.559 528.789 252.913 534.121 251.934C539.453 250.955 544.933 251.685 549.889 254.035C554.845 256.384 559.062 260.251 562.024 265.162C564.986 270.073 566.564 275.815 566.564 281.685H566.557Z" fill="#FDC2CC"/>
<path opacity="0.1" d="M515.029 358.258L522.418 370.92L512.112 395.021L499.862 404.729L497.723 389.686C497.723 389.686 493.586 379.767 491.804 378.087C492.318 376.728 492.668 376.103 492.668 376.601C492.668 378.712 497.451 388.208 497.451 388.208C512.229 382.722 507.64 361.407 507.64 361.407C507.64 361.407 505.804 342.413 505.089 337.416L507.64 338.615L515.029 358.258Z" fill="black"/>
<path opacity="0.1" d="M580.362 328.291V340.109L569.084 344.102L549.873 359.448L544.779 363.517L522.029 353.598L507.64 337.137C507.64 337.137 508.34 336.724 509.553 336.04L510.331 335.593C520.341 340.531 531.175 342.346 538.914 342.996C542.473 343.323 546.048 343.411 549.617 343.257C578.916 338.193 579.787 330.511 579.055 327.784L580.362 328.291Z" fill="black"/>
<path d="M588.723 519.685C581.389 523.588 573.859 527.04 566.168 530.026C552.751 535.302 523.195 528.338 519.501 527.282C515.807 526.227 487.418 513.987 476.529 509.344C465.64 504.701 462.918 508.5 460.39 508.078C457.862 507.656 456.112 502.38 455.723 500.903C455.334 499.425 462.723 486.552 466.807 480.01C470.89 473.468 483.14 474.734 484.89 474.312C486.64 473.89 498.89 474.312 498.89 474.312C498.89 474.312 498.112 470.091 502.584 458.273C507.057 446.455 495.195 424.507 495.195 424.507C487.029 418.809 488.39 401.082 488.39 401.082C486.445 393.273 492.668 375.335 492.668 377.446C492.668 379.556 497.451 389.053 497.451 389.053C512.229 383.566 507.64 362.251 507.64 362.251C507.64 362.251 505.501 340.092 504.933 337.348C504.366 334.605 507.64 335.027 507.64 335.027C508.273 335.382 508.91 335.719 509.553 336.04C519.789 341.274 530.989 343.181 538.938 343.84C542.497 344.167 546.071 344.255 549.64 344.102C585.161 337.88 578.869 327.961 578.636 327.607L580.362 328.274C593.196 338.404 589.307 371.959 589.307 371.959L584.5 397.005L580.93 415.66C580.93 415.66 593.569 498.809 594.735 503.03C595.902 507.251 588.723 519.685 588.723 519.685Z" fill="#2271FF"/>
<path opacity="0.1" d="M494.029 481.698C493.251 482.331 484.501 501.958 490.918 507.445C497.335 512.932 494.029 481.698 494.029 481.698Z" fill="black"/>
<path opacity="0.1" d="M500.251 484.459C500.445 485.092 518.529 516.325 528.445 518.858L500.251 484.459Z" fill="black"/>
<path opacity="0.1" d="M543.815 237.3L540.921 237.966C541.719 237.647 542.534 237.385 543.363 237.181L543.815 237.3Z" fill="black"/>
<path opacity="0.1" d="M587.386 371.959L581.941 396.988C579.163 395.613 576.61 393.757 574.381 391.492C572.647 389.703 571.091 387.651 568.859 386.478C565.989 384.967 562.528 385.17 559.269 385.043C555.198 384.878 551.165 384.129 547.276 382.814C546.146 382.507 545.087 381.949 544.164 381.177C542.313 379.404 542.438 376.542 542.609 374.044C542.947 369.187 542.986 364.311 542.726 359.448C542.679 358.537 542.617 357.625 542.547 356.713C542.236 352.636 541.224 347.909 537.382 346.161C535.407 345.317 533.05 345.385 531.16 344.363C530.887 344.214 530.627 344.039 530.382 343.84C527.582 341.713 527.326 337.45 527.434 333.862C527.6 328.932 527.759 323.999 527.909 319.064C528.051 316.63 528.001 314.187 527.761 311.762C527.574 310.152 527.165 308.581 526.548 307.102C524.86 303.186 521.344 299.919 520.714 295.782C520.68 295.59 520.656 295.395 520.644 295.2C520.318 291.502 522.464 288.058 523.219 284.42C524.728 277.101 519.657 269.082 512.198 266.98C509.864 266.321 507.36 266.195 505.034 265.444C504.663 265.323 504.297 265.182 503.938 265.021C509.569 256.867 519.221 251.515 530.18 251.515C547.548 251.515 561.633 265.021 561.633 281.693C561.633 291.148 557.099 299.581 550.013 305.119C550.06 305.355 550.114 305.6 550.177 305.836C552.004 313.51 557.674 321.546 557.674 321.546L575.283 327.624L577.243 328.299C591.788 338.42 587.386 371.959 587.386 371.959Z" fill="black"/>
<path opacity="0.1" d="M596.945 396.203C596.773 396.203 596.61 396.161 596.447 396.127C596.616 396.107 596.787 396.133 596.945 396.203Z" fill="black"/>
<path d="M536.807 236.464C531.94 235.237 526.963 234.605 521.967 234.581C520.341 234.581 518.599 234.674 517.3 235.645C515.581 236.953 515.363 239.317 514.85 241.36C513.921 244.771 511.963 247.744 509.289 249.801C507.445 251.262 505.275 252.334 503.51 253.87C501.744 255.407 500.399 257.686 500.842 259.931C501.286 262.177 503.611 263.907 505.944 264.625C508.278 265.342 510.759 265.469 513.108 266.161C520.567 268.263 525.63 276.291 524.121 283.593C523.343 287.231 521.22 290.675 521.547 294.373C521.928 298.788 525.684 302.189 527.45 306.284C529.06 310.015 528.951 314.202 528.827 318.237L528.352 333.043C528.228 336.943 528.539 341.637 532.086 343.544C533.983 344.557 536.348 344.448 538.308 345.343C542.15 347.081 543.161 351.817 543.472 355.886C543.917 361.652 543.938 367.447 543.534 373.216C543.356 375.749 543.231 378.577 545.09 380.349C546.01 381.125 547.07 381.683 548.201 381.987C552.091 383.301 556.124 384.051 560.194 384.216C563.461 384.351 566.914 384.148 569.784 385.651C572.017 386.824 573.572 388.884 575.307 390.665C580.28 395.603 586.619 398.616 593.336 399.233C594.774 399.368 596.408 399.334 597.411 398.33C598.414 397.325 597.823 395.156 596.392 395.283C597.608 395.504 598.856 395.369 600.008 394.891C601.159 394.413 602.172 393.61 602.941 392.564C603.595 391.555 603.947 390.35 603.947 389.116C603.947 387.882 603.595 386.677 602.941 385.668C601.316 383.135 597.862 381.447 597.676 378.442C597.574 376.753 598.609 375.225 599.418 373.723C601.368 369.982 602.146 365.655 601.636 361.392C601.125 357.13 599.353 353.162 596.587 350.087C592.939 345.993 587.471 342.886 586.196 337.635C585.348 334.124 586.631 330.435 586.141 326.864C585.363 320.955 579.973 316.734 577.01 311.467C574.047 306.199 573.526 299.826 574.28 293.832C575.034 287.839 576.948 282.014 578.503 276.19C579.662 271.842 580.619 267.225 579.328 262.911C578.402 259.847 576.411 257.188 574.342 254.681C569.388 248.679 563.687 243.057 556.64 239.486C549.593 235.915 541.007 234.531 533.524 237.173" fill="#474157"/>
<path opacity="0.1" d="M536.807 236.464C531.94 235.237 526.963 234.605 521.967 234.581C520.341 234.581 518.599 234.674 517.3 235.645C515.581 236.953 515.363 239.317 514.85 241.36C513.921 244.771 511.963 247.744 509.289 249.801C507.445 251.262 505.275 252.334 503.51 253.87C501.744 255.407 500.399 257.686 500.842 259.931C501.286 262.177 503.611 263.907 505.944 264.625C508.278 265.342 510.759 265.469 513.108 266.161C520.567 268.263 525.63 276.291 524.121 283.593C523.343 287.231 521.22 290.675 521.547 294.373C521.928 298.788 525.684 302.189 527.45 306.284C529.06 310.015 528.951 314.202 528.827 318.237L528.352 333.043C528.228 336.943 528.539 341.637 532.086 343.544C533.983 344.557 536.348 344.448 538.308 345.343C542.15 347.081 543.161 351.817 543.472 355.886C543.917 361.652 543.938 367.447 543.534 373.216C543.356 375.749 543.231 378.577 545.09 380.349C546.01 381.125 547.07 381.683 548.201 381.987C552.091 383.301 556.124 384.051 560.194 384.216C563.461 384.351 566.914 384.148 569.784 385.651C572.017 386.824 573.572 388.884 575.307 390.665C580.28 395.603 586.619 398.616 593.336 399.233C594.774 399.368 596.408 399.334 597.411 398.33C598.414 397.325 597.823 395.156 596.392 395.283C597.608 395.504 598.856 395.369 600.008 394.891C601.159 394.413 602.172 393.61 602.941 392.564C603.595 391.555 603.947 390.35 603.947 389.116C603.947 387.882 603.595 386.677 602.941 385.668C601.316 383.135 597.862 381.447 597.676 378.442C597.574 376.753 598.609 375.225 599.418 373.723C601.368 369.982 602.146 365.655 601.636 361.392C601.125 357.13 599.353 353.162 596.587 350.087C592.939 345.993 587.471 342.886 586.196 337.635C585.348 334.124 586.631 330.435 586.141 326.864C585.363 320.955 579.973 316.734 577.01 311.467C574.047 306.199 573.526 299.826 574.28 293.832C575.034 287.839 576.948 282.014 578.503 276.19C579.662 271.842 580.619 267.225 579.328 262.911C578.402 259.847 576.411 257.188 574.342 254.681C569.388 248.679 563.687 243.057 556.64 239.486C549.593 235.915 541.007 234.531 533.524 237.173" fill="black"/>
<path opacity="0.1" d="M495.196 424.524C495.196 424.524 501.807 427.267 508.807 419.67C515.807 412.073 495.196 424.524 495.196 424.524Z" fill="black"/>
<g opacity="0.1">
<path opacity="0.1" d="M539.731 236.337C541.014 236.06 542.314 235.883 543.62 235.805C541.804 235.685 539.981 235.747 538.176 235.991L539.731 236.337Z" fill="black"/>
<path opacity="0.1" d="M578.729 390.665C576.987 388.884 575.439 386.824 573.199 385.651C570.337 384.148 566.876 384.351 563.609 384.216C559.538 384.054 555.504 383.304 551.616 381.987C550.485 381.683 549.425 381.125 548.504 380.349C546.653 378.577 546.786 375.723 546.949 373.216C547.352 367.447 547.331 361.652 546.887 355.886C546.568 351.817 545.564 347.081 541.714 345.342C539.747 344.448 537.39 344.557 535.492 343.544C531.946 341.637 531.603 336.943 531.751 333.043C531.912 328.108 532.07 323.175 532.226 318.245C532.358 314.202 532.459 310.015 530.849 306.284C529.083 302.189 525.327 298.796 524.946 294.373C524.627 290.684 526.773 287.231 527.528 283.593C529.037 276.274 523.966 268.263 516.507 266.161C514.173 265.503 511.669 265.368 509.343 264.625C507.018 263.882 504.762 262.278 504.28 259.982C503.798 257.686 505.175 255.457 506.94 253.912C508.706 252.368 510.876 251.304 512.727 249.844C515.401 247.788 517.357 244.814 518.28 241.402C518.801 239.359 519.058 237.004 520.73 235.687C521.689 235.042 522.791 234.692 523.919 234.674C523.227 234.674 522.535 234.632 521.85 234.632C520.225 234.632 518.482 234.725 517.183 235.687C515.465 237.004 515.247 239.359 514.733 241.402C513.805 244.813 511.846 247.787 509.172 249.844C507.329 251.304 505.159 252.376 503.393 253.912C501.628 255.449 500.282 257.728 500.726 259.982C501.169 262.236 503.471 263.873 505.797 264.625C508.122 265.376 510.611 265.469 512.96 266.161C520.419 268.263 525.482 276.291 523.973 283.593C523.196 287.231 521.072 290.684 521.399 294.373C521.78 298.796 525.537 302.189 527.302 306.284C528.912 310.015 528.811 314.202 528.679 318.245C528.518 323.175 528.36 328.108 528.204 333.043C528.08 336.943 528.391 341.637 531.938 343.544C533.836 344.557 536.2 344.448 538.16 345.342C542.002 347.081 543.013 351.817 543.324 355.886C543.769 361.652 543.79 367.447 543.387 373.216C543.208 375.749 543.083 378.577 544.942 380.349C545.862 381.125 546.922 381.683 548.053 381.987C551.942 383.305 555.975 384.055 560.047 384.216C563.313 384.351 566.767 384.148 569.637 385.651C571.869 386.824 573.424 388.884 575.167 390.665C580.136 395.605 586.473 398.618 593.188 399.233C594.056 399.345 594.936 399.308 595.793 399.123C589.426 398.326 583.454 395.365 578.729 390.665Z" fill="black"/>
</g>
<path opacity="0.1" d="M458.057 365.205C458.057 365.205 451.834 371.401 452.744 373.934C453.654 376.466 458.057 365.205 458.057 365.205Z" fill="black"/>
<path d="M463.828 444.851C459.34 443.661 446.965 442.563 441.078 463.996C439.707 468.975 437.961 473.823 435.859 478.49C430.212 491.077 422.917 516.959 455 522.657L532 541.65C532 541.65 573.222 547.137 575.944 545.027C578.667 542.916 578.278 538.273 578.278 538.273C578.278 538.273 532.778 538.273 523.833 523.079C514.889 507.884 514.5 487.202 514.5 487.202C514.5 487.202 515.62 455.268 468.611 445.991C467.056 445.67 465.422 445.273 463.828 444.851Z" fill="#474157"/>
<path opacity="0.1" d="M463.828 444.995C459.34 443.804 446.965 442.707 441.078 464.148C439.707 469.127 437.961 473.974 435.859 478.642C430.212 491.22 422.917 517.102 455 522.8L532 541.794C532 541.794 573.222 547.281 575.944 545.17C578.667 543.06 578.278 538.417 578.278 538.417C578.278 538.417 532.778 538.417 523.833 523.222C514.889 508.027 514.5 487.346 514.5 487.346C514.5 487.346 515.62 455.411 468.611 446.134C467.056 445.813 465.422 445.4 463.828 444.995Z" fill="black"/>
<path d="M625.24 423.013C624.794 419.924 623.33 417.115 621.12 415.109C618.91 413.103 616.104 412.036 613.223 412.106C602.148 412.326 568.058 413.93 552.222 425.157C552.222 425.157 540.167 433.599 536.667 433.599C533.167 433.599 485.722 477.494 556.111 516.747C556.111 516.747 593.833 528.397 608.611 501.046C608.611 501.046 619.111 471.67 618.333 461.498C617.556 451.326 625.333 423.891 625.333 423.891C625.333 423.891 625.318 423.562 625.24 423.013Z" fill="#474157"/>
<path opacity="0.1" d="M625.24 430.408C624.353 424.499 619.173 420.227 613.223 420.337C602.148 420.54 568.058 422.025 552.222 432.383C552.222 432.383 540.167 440.175 536.667 440.175C533.167 440.175 485.722 480.694 556.111 516.933C556.111 516.933 593.833 527.688 608.611 502.439C608.611 502.439 619.111 475.317 618.333 465.93C617.556 456.543 625.333 431.218 625.333 431.218C625.333 431.218 625.318 430.914 625.24 430.408Z" fill="black"/>
<path d="M587.611 516.739H575.167V545.499H587.611V516.739Z" fill="#5F5D7E"/>
<path opacity="0.1" d="M132.409 399.79C151.756 399.79 167.44 398.698 167.44 397.351C167.44 396.003 151.756 394.911 132.409 394.911C113.062 394.911 97.3778 396.003 97.3778 397.351C97.3778 398.698 113.062 399.79 132.409 399.79Z" fill="black"/>
<path d="M161.809 303.262C161.063 304.371 160.466 305.591 160.036 306.883C159.927 307.204 159.818 307.558 159.709 307.904C159.513 307.803 159.307 307.727 159.094 307.676C158.188 307.43 157.25 307.342 156.318 307.415C156.318 307.026 156.364 306.571 156.372 306.182C156.489 301.734 156.007 295.529 152.094 298.154C148.346 300.687 151.021 304.908 153.44 307.617L154.062 308.276C151.853 309.964 151.433 313.957 151.068 318.102C150.702 322.247 147.459 326.788 145.304 329.363C145.087 329.624 144.892 329.861 144.698 330.08C143.828 329.324 142.82 328.777 141.74 328.476C140.661 328.175 139.535 328.126 138.437 328.333C138.351 327.97 138.25 327.59 138.149 327.185C136.407 320.364 132.79 308.537 128.178 305.946L128.784 305.102C130.744 302.316 132.953 298.188 129.694 297.125C126.436 296.061 126.14 300.712 126.319 304.19C126.319 304.629 126.381 305.034 126.412 305.423C125.761 305.457 125.123 305.635 124.538 305.945C123.952 306.256 123.431 306.693 123.006 307.229L122.5 306.588C119.856 303.211 115.01 297.834 113.54 301.894C112.171 305.676 116.441 310.58 119.443 313.425L119.63 313.602C117.616 322.491 126.389 329.751 131.149 332.891L131.763 333.296C125.23 341.654 121.193 357.313 121.193 357.313L139.487 360.858C139.487 360.858 151.62 349.504 150.064 338.834H150.189C162.314 336.2 165.068 322.171 163.178 313.839L163.396 313.746C165.603 312.762 167.538 311.174 169.011 309.137C172.402 304.013 165.278 298.239 161.809 303.262Z" fill="#2271FF"/>
<path opacity="0.1" d="M161.809 303.262C161.063 304.371 160.466 305.591 160.036 306.883C159.927 307.204 159.818 307.558 159.709 307.904C159.513 307.803 159.307 307.727 159.094 307.676C158.188 307.43 157.25 307.342 156.318 307.415C156.318 307.026 156.364 306.571 156.372 306.182C156.489 301.734 156.007 295.529 152.094 298.154C148.346 300.687 151.021 304.908 153.44 307.617L154.062 308.276C151.853 309.964 151.433 313.957 151.068 318.102C150.702 322.247 147.459 326.788 145.304 329.363C145.087 329.624 144.892 329.861 144.698 330.08C143.828 329.324 142.82 328.777 141.74 328.476C140.661 328.175 139.535 328.126 138.437 328.333C138.351 327.97 138.25 327.59 138.149 327.185C136.407 320.364 132.79 308.537 128.178 305.946L128.784 305.102C130.744 302.316 132.953 298.188 129.694 297.125C126.436 296.061 126.14 300.712 126.319 304.19C126.319 304.629 126.381 305.034 126.412 305.423C125.761 305.457 125.123 305.635 124.538 305.945C123.952 306.256 123.431 306.693 123.006 307.229L122.5 306.588C119.856 303.211 115.01 297.834 113.54 301.894C112.171 305.676 116.441 310.58 119.443 313.425L119.63 313.602C117.616 322.491 126.389 329.751 131.149 332.891L131.763 333.296C125.23 341.654 121.193 357.313 121.193 357.313L139.487 360.858C139.487 360.858 151.62 349.504 150.064 338.834H150.189C162.314 336.2 165.068 322.171 163.178 313.839L163.396 313.746C165.603 312.762 167.538 311.174 169.011 309.137C172.402 304.013 165.278 298.239 161.809 303.262Z" fill="black"/>
<path d="M125.393 308.985L123.278 315.78C123.278 315.78 122.088 314.869 120.587 313.434C117.584 310.589 113.314 305.684 114.683 301.902C116.153 297.842 120.999 303.202 123.643 306.596C124.686 307.938 125.393 308.985 125.393 308.985Z" fill="#2271FF"/>
<path d="M129.904 305.11C129.254 306.036 128.558 306.924 127.82 307.769C127.638 306.587 127.511 305.395 127.439 304.199C127.26 300.721 127.602 296.103 130.814 297.133C134.027 298.163 131.833 302.324 129.904 305.11Z" fill="#2271FF"/>
<path d="M157.5 306.182C157.438 308.419 157.236 310.2 157.236 310.2C156.294 309.406 155.402 308.543 154.568 307.617C152.149 304.891 149.473 300.687 153.222 298.154C157.127 295.529 157.609 301.734 157.5 306.182Z" fill="#2271FF"/>
<path d="M170.131 309.111C168.653 311.148 166.712 312.734 164.5 313.712C163.888 314 163.259 314.245 162.618 314.447L160.098 310.606C160.365 309.337 160.713 308.09 161.14 306.874C161.57 305.582 162.167 304.363 162.913 303.253C166.413 298.239 173.522 304.013 170.131 309.111Z" fill="#2271FF"/>
<path opacity="0.1" d="M123.62 306.596C124.686 307.938 125.393 308.985 125.393 308.985L123.278 315.78C123.278 315.78 122.088 314.869 120.587 313.434C120.922 311.258 121.75 309.207 122.998 307.465C123.184 307.153 123.41 306.858 123.62 306.596Z" fill="black"/>
<path opacity="0.1" d="M129.904 305.11C129.254 306.036 128.558 306.924 127.82 307.769C127.638 306.587 127.511 305.395 127.439 304.198C128.328 304.215 129.191 304.533 129.904 305.11Z" fill="black"/>
<path d="M140.389 332.089L135.069 334.622C135.069 334.622 133.91 334.014 132.238 332.883C126.646 329.143 115.407 319.748 122.943 308.673C130.48 297.597 136.764 317.469 139.238 327.176C140.023 330.089 140.389 332.089 140.389 332.089Z" fill="#2271FF"/>
<path opacity="0.1" d="M154.56 307.617C155.332 306.748 156.381 306.234 157.492 306.182C157.43 308.419 157.228 310.2 157.228 310.2C156.286 309.406 155.395 308.543 154.56 307.617Z" fill="black"/>
<path opacity="0.1" d="M164.5 313.712C163.888 314 163.259 314.245 162.618 314.447L160.098 310.606C160.365 309.337 160.713 308.09 161.14 306.875C162.781 307.921 163.979 310.479 164.5 313.712Z" fill="black"/>
<path d="M151.278 338.809L150.383 338.978C132.549 341.924 144.503 331.481 144.503 331.481C144.503 331.481 145.281 330.68 146.393 329.363C148.548 326.788 151.783 322.272 152.157 318.102C152.717 311.83 153.362 305.946 160.183 307.676C166.911 309.373 168.194 335.137 151.278 338.809Z" fill="#2271FF"/>
<path d="M150.974 386.993H116.9V396.718H150.974V386.993Z" fill="#474157"/>
<path d="M156.007 355.388H111.487V389.323H156.007V355.388Z" fill="#474157"/>
<path opacity="0.1" d="M150.648 386.993H116.573V396.718H150.648V386.993Z" fill="black"/>
<path opacity="0.1" d="M155.867 355.396H111.347V389.331H155.867V355.396Z" fill="black"/>
<path d="M153.214 386.993H119.14V396.718H153.214V386.993Z" fill="#474157"/>
<path opacity="0.1" d="M139.269 327.219C140.047 330.122 140.42 332.123 140.42 332.123L135.1 334.655C135.1 334.655 133.941 334.048 132.269 332.917C134.353 330.021 136.702 327.852 139.269 327.219Z" fill="black"/>
<path opacity="0.1" d="M151.278 338.809L150.383 338.978C132.549 341.924 144.503 331.482 144.503 331.482C144.503 331.482 145.281 330.68 146.393 329.363C149.722 332.283 151.13 335.517 151.278 338.809Z" fill="black"/>
<path d="M122.313 357.313C122.313 357.313 132.3 318.482 146.308 330.469C160.316 342.455 140.607 360.858 140.607 360.858L122.313 357.313Z" fill="#2271FF"/>
<path opacity="0.1" d="M127.353 315.974C127.972 315.974 128.473 315.43 128.473 314.759C128.473 314.088 127.972 313.543 127.353 313.543C126.735 313.543 126.233 314.088 126.233 314.759C126.233 315.43 126.735 315.974 127.353 315.974Z" fill="black"/>
<path opacity="0.1" d="M127.26 321.656C127.879 321.656 128.38 321.111 128.38 320.44C128.38 319.769 127.879 319.224 127.26 319.224C126.641 319.224 126.14 319.769 126.14 320.44C126.14 321.111 126.641 321.656 127.26 321.656Z" fill="black"/>
<path opacity="0.1" d="M159.748 317.089C160.366 317.089 160.868 316.544 160.868 315.873C160.868 315.202 160.366 314.658 159.748 314.658C159.129 314.658 158.628 315.202 158.628 315.873C158.628 316.544 159.129 317.089 159.748 317.089Z" fill="black"/>
<path opacity="0.1" d="M133.607 346.17C134.225 346.17 134.727 345.626 134.727 344.954C134.727 344.283 134.225 343.739 133.607 343.739C132.988 343.739 132.487 344.283 132.487 344.954C132.487 345.626 132.988 346.17 133.607 346.17Z" fill="black"/>
<path opacity="0.1" d="M157.414 326.518C158.033 326.518 158.534 325.974 158.534 325.302C158.534 324.631 158.033 324.087 157.414 324.087C156.796 324.087 156.294 324.631 156.294 325.302C156.294 325.974 156.796 326.518 157.414 326.518Z" fill="black"/>
<path opacity="0.1" d="M145.841 339.079C146.46 339.079 146.961 338.535 146.961 337.863C146.961 337.192 146.46 336.648 145.841 336.648C145.223 336.648 144.721 337.192 144.721 337.863C144.721 338.535 145.223 339.079 145.841 339.079Z" fill="black"/>
<path opacity="0.1" d="M131.18 318.406C131.799 318.406 132.3 317.861 132.3 317.19C132.3 316.519 131.799 315.974 131.18 315.974C130.561 315.974 130.06 316.519 130.06 317.19C130.06 317.861 130.561 318.406 131.18 318.406Z" fill="black"/>
<path opacity="0.1" d="M156.668 320.744C157.286 320.744 157.788 320.2 157.788 319.528C157.788 318.857 157.286 318.313 156.668 318.313C156.049 318.313 155.548 318.857 155.548 319.528C155.548 320.2 156.049 320.744 156.668 320.744Z" fill="black"/>
<path opacity="0.1" d="M152.841 330.165C153.46 330.165 153.961 329.62 153.961 328.949C153.961 328.278 153.46 327.733 152.841 327.733C152.223 327.733 151.721 328.278 151.721 328.949C151.721 329.62 152.223 330.165 152.841 330.165Z" fill="black"/>
<path opacity="0.1" d="M141.073 345.258C141.692 345.258 142.193 344.714 142.193 344.043C142.193 343.371 141.692 342.827 141.073 342.827C140.455 342.827 139.953 343.371 139.953 344.043C139.953 344.714 140.455 345.258 141.073 345.258Z" fill="black"/>
<path opacity="0.1" d="M138.647 339.281C139.265 339.281 139.767 338.737 139.767 338.066C139.767 337.395 139.265 336.85 138.647 336.85C138.028 336.85 137.527 337.395 137.527 338.066C137.527 338.737 138.028 339.281 138.647 339.281Z" fill="black"/>
<path opacity="0.1" d="M132.86 325.809C133.479 325.809 133.98 325.265 133.98 324.593C133.98 323.922 133.479 323.378 132.86 323.378C132.241 323.378 131.74 323.922 131.74 324.593C131.74 325.265 132.241 325.809 132.86 325.809Z" fill="black"/>
<path opacity="0.1" d="M153.214 386.993H119.14V390.547H153.214V386.993Z" fill="black"/>
<path d="M158.247 355.388H113.727V389.323H158.247V355.388Z" fill="#474157"/>
<path opacity="0.1" d="M142.567 350.728C143.185 350.728 143.687 350.184 143.687 349.513C143.687 348.841 143.185 348.297 142.567 348.297C141.948 348.297 141.447 348.841 141.447 349.513C141.447 350.184 141.948 350.728 142.567 350.728Z" fill="black"/>
<path opacity="0.1" d="M135.847 352.248C136.465 352.248 136.967 351.703 136.967 351.032C136.967 350.361 136.465 349.817 135.847 349.817C135.228 349.817 134.727 350.361 134.727 351.032C134.727 351.703 135.228 352.248 135.847 352.248Z" fill="black"/>
<path d="M242.581 485.075C242.581 485.075 248.127 492.951 240.022 504.837C231.918 516.722 225.244 526.784 227.92 534.179C227.92 534.179 240.162 512.096 250.126 511.792C260.089 511.488 253.54 498.362 242.581 485.075Z" fill="#2271FF"/>
<path opacity="0.1" d="M242.581 485.075C243.066 485.834 243.448 486.664 243.717 487.54C253.431 499.932 258.611 511.497 249.27 511.792C240.567 512.088 230.129 528.971 227.625 533.192C227.71 533.521 227.811 533.85 227.92 534.162C227.92 534.162 240.162 512.079 250.126 511.775C260.089 511.472 253.54 498.362 242.581 485.075Z" fill="black"/>
<path d="M252.894 495.12C252.894 497.889 252.607 500.135 252.257 500.135C251.907 500.135 251.619 497.889 251.619 495.12C251.619 492.352 251.977 493.652 252.327 493.652C252.677 493.652 252.894 492.343 252.894 495.12Z" fill="#FFD037"/>
<path d="M256.433 498.429C254.193 499.755 252.241 500.557 252.07 500.219C251.899 499.881 253.579 498.531 255.827 497.205C258.074 495.88 257.18 496.842 257.382 497.205C257.584 497.568 258.681 497.104 256.433 498.429Z" fill="#FFD037"/>
<path d="M213.267 485.075C213.267 485.075 207.721 492.951 215.826 504.837C223.93 516.722 230.603 526.784 227.92 534.179C227.92 534.179 215.686 512.096 205.722 511.792C195.759 511.488 202.308 498.362 213.267 485.075Z" fill="#2271FF"/>
<path opacity="0.1" d="M213.267 485.075C212.782 485.834 212.4 486.664 212.131 487.54C202.417 499.932 197.237 511.497 206.578 511.792C215.281 512.088 225.719 528.971 228.223 533.192C228.139 533.521 228.037 533.845 227.92 534.162C227.92 534.162 215.686 512.088 205.722 511.801C195.759 511.514 202.308 498.362 213.267 485.075Z" fill="black"/>
<path d="M202.953 495.12C202.953 497.889 203.241 500.135 203.591 500.135C203.941 500.135 204.229 497.889 204.229 495.12C204.229 492.352 203.871 493.652 203.521 493.652C203.171 493.652 202.953 492.343 202.953 495.12Z" fill="#FFD037"/>
<path d="M199.415 498.429C201.655 499.755 203.607 500.557 203.778 500.219C203.949 499.881 202.269 498.531 200.021 497.205C197.773 495.88 198.668 496.842 198.466 497.205C198.263 497.568 197.167 497.104 199.415 498.429Z" fill="#FFD037"/>
<path opacity="0.1" d="M227.92 594.443C259.965 594.443 285.942 590.116 285.942 584.778C285.942 579.44 259.965 575.112 227.92 575.112C195.875 575.112 169.898 579.44 169.898 584.778C169.898 590.116 195.875 594.443 227.92 594.443Z" fill="#2271FF"/>
<path d="M257.787 523.577L257.507 526.033L257.118 529.511L256.962 530.955L256.566 534.433L256.402 535.884L256.013 539.354L251.611 578.86C251.214 582.389 245.902 585.132 239.501 585.132H216.386C209.977 585.132 204.719 582.389 204.283 578.86L199.834 539.354L199.446 535.884L199.282 534.433L198.886 530.955L198.73 529.511L198.341 526.033L198.061 523.577C197.836 521.585 200.706 519.896 204.338 519.896H251.518C255.134 519.896 258.012 521.585 257.787 523.577Z" fill="#65617D"/>
<path d="M257.507 526.033L257.118 529.503H198.73L198.341 526.033H257.507Z" fill="#9D9CB5"/>
<path d="M256.962 530.955L256.573 534.432H199.282L198.885 530.955H256.962Z" fill="#9D9CB5"/>
<path d="M256.402 535.876L256.013 539.354H199.834L199.446 535.876H256.402Z" fill="#9D9CB5"/>
<defs>
<linearGradient id="paint0_linear_1_195" x1="527.466" y1="670.24" x2="527.466" y2="234.581" gradientUnits="userSpaceOnUse">
<stop stop-color="#808080" stop-opacity="0.25"/>
<stop offset="0.54" stop-color="#808080" stop-opacity="0.12"/>
<stop offset="1" stop-color="#808080" stop-opacity="0.1"/>
</linearGradient>
</defs>
</svg>
